<?xml version="1.0" encoding="utf-8"?>
<!-- Generator: Adobe Illustrator 22.0.1, SVG Export Plug-In . SVG Version: 6.00 Build 0)  -->
<svg version="1.1" id="レイヤー_1" xmlns="http://www.w3.org/2000/svg" xmlns:xlink="http://www.w3.org/1999/xlink" x="0px"
	 y="0px" viewBox="0 0 523.5 364.5" style="enable-background:new 0 0 523.5 364.5;" xml:space="preserve">
<style type="text/css">
	.st0{fill:#E71F17;}
	.st1{fill:#006EAF;}
</style>
<path class="st0" d="M152.5,183.5c0-59.3,47.3-107.5,106.2-109.1V0C158.5,0.5,77.5,81.9,77.5,182.2c0,100.3,81.1,181.7,181.2,182.2
	v-71.8C199.8,291.1,152.5,242.8,152.5,183.5z"/>
<path class="st1" d="M442,182.2C442,83.2,363,2.7,264.7,0.1v74.4c58.9,1.6,106.2,49.8,106.2,109.1s-47.3,107.5-106.2,109.1v71.8
	C363,361.8,442,281.2,442,182.2z"/>
<path d="M38.4,161.2c-2.9,1.3-6.1,1.9-9.9,1.9c-3.4,0-6.5-0.6-9.4-1.7c-2.9-1.1-5.4-2.7-7.5-4.8c-2.1-2-3.8-4.5-5-7.4
	c-1.2-2.9-1.8-6-1.8-9.4c0-3.5,0.6-6.7,1.8-9.5c1.2-2.9,2.9-5.3,5.1-7.3c2.2-2,4.7-3.5,7.6-4.6c2.9-1.1,6-1.6,9.4-1.6
	c3.1,0,6.1,0.6,9.1,1.7c3,1.1,5.4,2.7,7.3,4.8l-7.2,7.2c-1-1.4-2.3-2.4-3.9-3c-1.6-0.7-3.3-1-5-1c-1.9,0-3.6,0.3-5.1,1
	s-2.9,1.6-4,2.8c-1.1,1.2-2,2.6-2.6,4.2c-0.6,1.6-0.9,3.4-0.9,5.4c0,2,0.3,3.8,0.9,5.5c0.6,1.7,1.5,3.1,2.6,4.3
	c1.1,1.2,2.4,2.1,3.9,2.8c1.5,0.7,3.2,1,5,1c2.1,0,3.9-0.4,5.5-1.2c1.6-0.8,2.8-1.9,3.8-3.2l7.4,7C43.7,158.2,41.3,159.9,38.4,161.2
	z"/>
<path d="M107.1,139.9c0,3.5-0.6,6.6-1.8,9.5c-1.2,2.9-2.9,5.3-5,7.4c-2.1,2-4.7,3.6-7.6,4.7c-2.9,1.1-6.1,1.7-9.6,1.7
	c-3.4,0-6.6-0.6-9.5-1.7c-2.9-1.1-5.4-2.7-7.6-4.8c-2.1-2-3.8-4.5-5-7.4c-1.2-2.9-1.8-6-1.8-9.5c0-3.5,0.6-6.7,1.8-9.5
	c1.2-2.8,2.9-5.2,5-7.2c2.1-2,4.7-3.5,7.6-4.6c2.9-1.1,6.1-1.6,9.5-1.6c3.4,0,6.6,0.5,9.5,1.6c2.9,1.1,5.5,2.6,7.6,4.6
	c2.1,2,3.8,4.4,5,7.2C106.5,133.3,107.1,136.4,107.1,139.9z M95.7,139.9c0-1.9-0.3-3.7-0.9-5.3c-0.6-1.7-1.5-3.1-2.6-4.2
	c-1.1-1.2-2.4-2.1-4-2.8c-1.5-0.7-3.3-1-5.1-1s-3.6,0.3-5.1,1c-1.5,0.7-2.9,1.6-4,2.8c-1.1,1.2-2,2.6-2.6,4.2
	c-0.6,1.7-0.9,3.4-0.9,5.3c0,2,0.3,3.8,0.9,5.5c0.6,1.7,1.5,3.1,2.6,4.3c1.1,1.2,2.4,2.1,3.9,2.8c1.5,0.7,3.2,1,5.1,1s3.6-0.3,5.1-1
	c1.5-0.7,2.9-1.6,4-2.8c1.1-1.2,2-2.6,2.6-4.3C95.4,143.7,95.7,141.9,95.7,139.9z"/>
<path d="M153.1,162.1l-17.6-28.7l-0.2,0l0.2,28.7l-10.3,0l0.1-43.9l12.1,0l17.6,28.7l0.2,0l-0.2-28.6l10.3,0l-0.1,43.9L153.1,162.1z
	"/>
<path d="M209.6,162.2l-10.6,0l-16.6-43.9l11.9,0l10.1,31.1l0.2,0l10.1-31.1l11.7,0L209.6,162.2z"/>
<path d="M242.5,162.3l0.1-43.9l29.5,0l0,8.9l-19.3,0l0,8.3l18.2,0l0,8.5l-18.2,0l0,9.1l20.4,0l0,9.1L242.5,162.3z"/>
<path d="M318.5,162.4l-9.5-17.4l-3.6,0l0,17.4l-10.4,0l0.1-43.9l16.7,0c2.1,0,4.2,0.2,6.2,0.7c2,0.4,3.8,1.2,5.4,2.2
	c1.6,1,2.9,2.4,3.8,4.1c0.9,1.7,1.4,3.8,1.4,6.3c0,3-0.8,5.5-2.4,7.5c-1.6,2-3.8,3.5-6.7,4.3l11.4,18.8L318.5,162.4z M318.1,131.9
	c0-1-0.2-1.9-0.7-2.5c-0.4-0.6-1-1.1-1.7-1.5c-0.7-0.4-1.5-0.6-2.3-0.7c-0.9-0.1-1.7-0.2-2.5-0.2l-5.7,0l0,10.2l5,0
	c0.9,0,1.8-0.1,2.7-0.2c0.9-0.1,1.7-0.4,2.5-0.8c0.7-0.4,1.4-0.9,1.8-1.6C317.9,133.9,318.1,133,318.1,131.9z"/>
<path d="M369.3,129.9c-0.9-1.2-2.1-2.1-3.6-2.8c-1.5-0.7-2.9-1-4.2-1c-0.7,0-1.4,0.1-2.1,0.2c-0.7,0.1-1.4,0.4-2,0.7
	c-0.6,0.4-1.1,0.8-1.5,1.4c-0.4,0.6-0.6,1.3-0.6,2.1c0,0.7,0.2,1.4,0.5,1.9c0.3,0.5,0.8,0.9,1.4,1.3c0.6,0.4,1.3,0.7,2.1,1
	c0.8,0.3,1.8,0.6,2.8,1c1.5,0.5,3,1,4.6,1.6c1.6,0.6,3.1,1.4,4.4,2.4c1.3,1,2.4,2.2,3.3,3.7c0.9,1.5,1.3,3.3,1.3,5.5
	c0,2.5-0.5,4.7-1.4,6.5c-0.9,1.8-2.2,3.4-3.8,4.6c-1.6,1.2-3.4,2.1-5.4,2.7s-4.1,0.9-6.3,0.9c-3.1,0-6.2-0.6-9.1-1.7
	c-2.9-1.1-5.4-2.7-7.3-4.7l7-7.1c1.1,1.3,2.5,2.4,4.2,3.3c1.8,0.9,3.5,1.3,5.2,1.3c0.8,0,1.5-0.1,2.3-0.2c0.7-0.2,1.4-0.4,2-0.8
	c0.6-0.4,1-0.9,1.3-1.5c0.3-0.6,0.5-1.4,0.5-2.2c0-0.8-0.2-1.5-0.6-2.1c-0.4-0.6-1-1.1-1.8-1.6c-0.8-0.5-1.7-0.9-2.9-1.3
	c-1.1-0.4-2.4-0.8-3.9-1.3c-1.4-0.5-2.8-1-4.1-1.6s-2.5-1.4-3.6-2.4c-1.1-1-1.9-2.2-2.5-3.5c-0.6-1.4-1-3.1-1-5.1
	c0-2.4,0.5-4.5,1.5-6.3s2.3-3.2,3.9-4.3c1.6-1.1,3.4-1.9,5.5-2.4c2-0.5,4.1-0.8,6.1-0.8c2.5,0,5,0.5,7.6,1.4c2.6,0.9,4.8,2.3,6.8,4
	L369.3,129.9z"/>
<path d="M391.4,162.4l0.1-43.9l10.7,0l-0.1,43.9L391.4,162.4z"/>
<path d="M465.6,140.4c0,3.5-0.6,6.6-1.8,9.5c-1.2,2.9-2.9,5.3-5,7.4c-2.1,2-4.7,3.6-7.6,4.7c-2.9,1.1-6.1,1.7-9.5,1.7
	c-3.4,0-6.6-0.6-9.5-1.7c-2.9-1.1-5.4-2.7-7.6-4.8c-2.1-2-3.8-4.5-5-7.4c-1.2-2.9-1.8-6-1.8-9.5c0-3.5,0.6-6.7,1.8-9.5
	c1.2-2.8,2.9-5.2,5-7.2c2.1-2,4.7-3.5,7.6-4.6c2.9-1.1,6.1-1.6,9.5-1.6c3.4,0,6.6,0.5,9.5,1.6c2.9,1.1,5.5,2.6,7.6,4.6
	c2.1,2,3.8,4.4,5,7.2C465,133.7,465.6,136.9,465.6,140.4z M454.2,140.4c0-1.9-0.3-3.7-0.9-5.3c-0.6-1.7-1.5-3.1-2.6-4.2
	c-1.1-1.2-2.4-2.1-4-2.8s-3.3-1-5.1-1c-1.9,0-3.6,0.3-5.1,1c-1.5,0.7-2.9,1.6-4,2.8c-1.1,1.2-2,2.6-2.6,4.2
	c-0.6,1.7-0.9,3.4-0.9,5.3c0,2,0.3,3.8,0.9,5.5s1.5,3.1,2.6,4.3c1.1,1.2,2.4,2.1,3.9,2.8c1.5,0.7,3.2,1,5.1,1c1.9,0,3.6-0.3,5.1-1
	c1.5-0.7,2.9-1.6,4-2.8c1.1-1.2,2-2.6,2.6-4.3C453.9,144.2,454.2,142.4,454.2,140.4z"/>
<path d="M509.1,162.6l-17.6-28.7l-0.2,0l0.2,28.7l-10.3,0l0.1-43.9l12.1,0l17.6,28.7l0.2,0l-0.2-28.6l10.3,0l-0.1,43.9L509.1,162.6z
	"/>
<path d="M30.7,204.4l0,34.8l-10.6,0l0-34.8l-12.4,0l0-9.1l35.4,0l0,9.1L30.7,204.4z"/>
<path d="M56.5,239.3l0.1-43.9l29.5,0l0,8.9l-19.3,0l0,8.3l18.2,0l0,8.5l-18.2,0l0,9.1l20.4,0l0,9.1L56.5,239.3z"/>
<path d="M134.3,238.6c-2.9,1.3-6.1,1.9-9.9,1.9c-3.4,0-6.5-0.6-9.4-1.7c-2.9-1.1-5.4-2.7-7.5-4.8c-2.1-2-3.8-4.5-5-7.4
	c-1.2-2.9-1.8-6-1.8-9.4c0-3.5,0.6-6.7,1.8-9.5c1.2-2.9,2.9-5.3,5.1-7.3c2.2-2,4.7-3.5,7.6-4.6c2.9-1.1,6-1.6,9.4-1.6
	c3.1,0,6.1,0.6,9.1,1.7c3,1.1,5.4,2.7,7.3,4.8l-7.2,7.2c-1-1.4-2.3-2.4-3.9-3s-3.3-1-5-1c-1.9,0-3.6,0.3-5.1,1
	c-1.6,0.7-2.9,1.6-4,2.8c-1.1,1.2-2,2.6-2.6,4.2s-0.9,3.4-0.9,5.4c0,2,0.3,3.8,0.9,5.5c0.6,1.7,1.5,3.1,2.6,4.3
	c1.1,1.2,2.4,2.1,3.9,2.8c1.5,0.7,3.2,1,5,1c2.1,0,3.9-0.4,5.5-1.2c1.6-0.8,2.8-1.9,3.8-3.2l7.4,7
	C139.5,235.5,137.1,237.3,134.3,238.6z"/>
<path d="M183.6,239.4l0-18.4l-17.1,0l0,18.4l-10.6,0l0.1-43.9l10.6,0l0,16.6l17.1,0l0-16.6l10.6,0l-0.1,43.9L183.6,239.4z"/>
<path d="M239.9,239.5l-17.6-28.7h-0.2l0.2,28.7l-10.3,0l0.1-43.9l12.1,0l17.6,28.7h0.2l-0.2-28.6l10.3,0l-0.1,43.9L239.9,239.5z"/>
<path d="M314.2,217.5c0,3.5-0.6,6.6-1.8,9.5c-1.2,2.9-2.9,5.3-5,7.4c-2.1,2-4.7,3.6-7.6,4.7c-2.9,1.1-6.1,1.7-9.5,1.7
	c-3.4,0-6.6-0.6-9.5-1.7c-2.9-1.1-5.4-2.7-7.6-4.8s-3.8-4.5-5-7.4c-1.2-2.9-1.8-6-1.8-9.5c0-3.5,0.6-6.7,1.8-9.5
	c1.2-2.8,2.9-5.2,5-7.2c2.1-2,4.7-3.5,7.6-4.6c2.9-1.1,6.1-1.6,9.5-1.6c3.4,0,6.6,0.5,9.5,1.6c2.9,1.1,5.5,2.6,7.6,4.6
	c2.1,2,3.8,4.4,5,7.2C313.6,210.8,314.2,214,314.2,217.5z M302.8,217.5c0-1.9-0.3-3.7-0.9-5.3s-1.5-3.1-2.6-4.2
	c-1.1-1.2-2.4-2.1-4-2.8c-1.5-0.7-3.3-1-5.1-1c-1.9,0-3.6,0.3-5.1,1c-1.5,0.7-2.9,1.6-4,2.8c-1.1,1.2-2,2.6-2.6,4.2
	c-0.6,1.7-0.9,3.4-0.9,5.3c0,2,0.3,3.8,0.9,5.5c0.6,1.7,1.5,3.1,2.6,4.3c1.1,1.2,2.4,2.1,3.9,2.8c1.5,0.7,3.2,1,5.1,1
	c1.9,0,3.6-0.3,5.1-1c1.5-0.7,2.9-1.6,4-2.8c1.1-1.2,2-2.6,2.6-4.3C302.5,221.3,302.8,219.4,302.8,217.5z"/>
<path d="M328.6,239.6l0.1-43.9l10.7,0l0,34.7l17,0l0,9.2L328.6,239.6z"/>
<path d="M414.4,217.6c0,3.5-0.6,6.6-1.8,9.5c-1.2,2.9-2.9,5.3-5,7.4c-2.1,2-4.7,3.6-7.6,4.7c-2.9,1.1-6.1,1.7-9.5,1.7
	c-3.4,0-6.6-0.6-9.5-1.7s-5.4-2.7-7.6-4.8s-3.8-4.5-5-7.4c-1.2-2.9-1.8-6-1.8-9.5c0-3.5,0.6-6.7,1.8-9.5c1.2-2.8,2.9-5.2,5-7.2
	c2.1-2,4.7-3.5,7.6-4.6c2.9-1.1,6.1-1.6,9.5-1.6c3.4,0,6.6,0.5,9.5,1.6c2.9,1.1,5.5,2.6,7.6,4.6c2.1,2,3.8,4.4,5,7.2
	C413.8,210.9,414.4,214.1,414.4,217.6z M403.1,217.6c0-1.9-0.3-3.7-0.9-5.3s-1.5-3.1-2.6-4.3c-1.1-1.2-2.4-2.1-4-2.8
	c-1.5-0.7-3.3-1-5.1-1c-1.9,0-3.6,0.3-5.1,1c-1.5,0.7-2.9,1.6-4,2.8c-1.1,1.2-2,2.6-2.6,4.2c-0.6,1.7-0.9,3.4-0.9,5.3
	c0,2,0.3,3.8,0.9,5.5c0.6,1.7,1.5,3.1,2.6,4.3c1.1,1.2,2.4,2.1,3.9,2.8c1.5,0.7,3.2,1,5.1,1c1.9,0,3.6-0.3,5.1-1s2.9-1.6,4-2.8
	c1.1-1.2,2-2.6,2.6-4.3C402.8,221.4,403.1,219.6,403.1,217.6z"/>
<path d="M461.5,239.9c-2.9,0.7-6,1-9.4,1c-3.5,0-6.7-0.6-9.7-1.7c-3-1.1-5.5-2.7-7.6-4.7c-2.1-2-3.8-4.5-5-7.3
	c-1.2-2.8-1.8-6-1.8-9.5c0-3.5,0.6-6.7,1.8-9.5c1.2-2.9,2.9-5.3,5.1-7.3c2.2-2,4.7-3.5,7.6-4.6c2.9-1.1,6-1.6,9.4-1.6
	c3.5,0,6.7,0.5,9.7,1.6c3,1.1,5.4,2.5,7.2,4.3l-6.7,7.6c-1-1.2-2.4-2.2-4.1-3c-1.7-0.8-3.6-1.2-5.8-1.2c-1.9,0-3.6,0.3-5.1,1
	c-1.6,0.7-2.9,1.6-4.1,2.8c-1.2,1.2-2.1,2.7-2.7,4.3c-0.6,1.7-1,3.5-1,5.5c0,2,0.3,3.9,0.9,5.6c0.6,1.7,1.4,3.2,2.6,4.4
	c1.1,1.2,2.5,2.2,4.2,2.9c1.7,0.7,3.6,1,5.7,1c1.2,0,2.4-0.1,3.5-0.3c1.1-0.2,2.1-0.5,3.1-0.9l0-8l-8.4,0l0-8.6l18.1,0l0,23.2
	C466.9,238.3,464.4,239.2,461.5,239.9z"/>
<path d="M506.6,221.3l0,18.6l-10.6,0l0-18.6l-16.5-25.3l12.8,0l9.3,16.3l9.4-16.2l12.4,0L506.6,221.3z"/>
</svg>
