<?xml version="1.0" encoding="utf-8"?>
<!-- Generator: Adobe Illustrator 22.0.1, SVG Export Plug-In . SVG Version: 6.00 Build 0)  -->
<svg version="1.1" id="レイヤー_1" xmlns="http://www.w3.org/2000/svg" xmlns:xlink="http://www.w3.org/1999/xlink" x="0px"
	 y="0px" viewBox="0 0 523.5 364.5" style="enable-background:new 0 0 523.5 364.5;" xml:space="preserve">
<style type="text/css">
	.st0{fill:#828282;}
	.st1{fill:#A8A8A8;}
	.st2{fill:#FFFFFF;}
</style>
<path class="st0" d="M152.5,183.5c0-59.3,47.3-107.5,106.2-109.1V0C158.5,0.5,77.5,81.9,77.5,182.2s81.1,181.7,181.2,182.2v-71.8
	C199.8,291.1,152.5,242.8,152.5,183.5z"/>
<path class="st1" d="M442,182.2c0-99-79-179.5-177.3-182.1v74.4c58.9,1.6,106.2,49.8,106.2,109.1s-47.3,107.5-106.2,109.1v71.8
	C363,361.8,442,281.2,442,182.2z"/>
<path class="st2" d="M38.4,161.2c-2.9,1.3-6.1,1.9-9.9,1.9c-3.4,0-6.5-0.6-9.4-1.7c-2.9-1.1-5.4-2.7-7.5-4.8c-2.1-2-3.8-4.5-5-7.4
	s-1.8-6-1.8-9.4c0-3.5,0.6-6.7,1.8-9.5c1.2-2.9,2.9-5.3,5.1-7.3s4.7-3.5,7.6-4.6s6-1.6,9.4-1.6c3.1,0,6.1,0.6,9.1,1.7
	s5.4,2.7,7.3,4.8l-7.2,7.2c-1-1.4-2.3-2.4-3.9-3c-1.6-0.7-3.3-1-5-1c-1.9,0-3.6,0.3-5.1,1s-2.9,1.6-4,2.8s-2,2.6-2.6,4.2
	c-0.6,1.6-0.9,3.4-0.9,5.4s0.3,3.8,0.9,5.5s1.5,3.1,2.6,4.3s2.4,2.1,3.9,2.8s3.2,1,5,1c2.1,0,3.9-0.4,5.5-1.2s2.8-1.9,3.8-3.2l7.4,7
	C43.7,158.2,41.3,159.9,38.4,161.2z"/>
<path class="st2" d="M107.1,139.9c0,3.5-0.6,6.6-1.8,9.5c-1.2,2.9-2.9,5.3-5,7.4c-2.1,2-4.7,3.6-7.6,4.7c-2.9,1.1-6.1,1.7-9.6,1.7
	c-3.4,0-6.6-0.6-9.5-1.7c-2.9-1.1-5.4-2.7-7.6-4.8c-2.1-2-3.8-4.5-5-7.4s-1.8-6-1.8-9.5s0.6-6.7,1.8-9.5s2.9-5.2,5-7.2
	s4.7-3.5,7.6-4.6s6.1-1.6,9.5-1.6s6.6,0.5,9.5,1.6s5.5,2.6,7.6,4.6s3.8,4.4,5,7.2C106.5,133.3,107.1,136.4,107.1,139.9z M95.7,139.9
	c0-1.9-0.3-3.7-0.9-5.3c-0.6-1.7-1.5-3.1-2.6-4.2c-1.1-1.2-2.4-2.1-4-2.8c-1.5-0.7-3.3-1-5.1-1s-3.6,0.3-5.1,1s-2.9,1.6-4,2.8
	s-2,2.6-2.6,4.2c-0.6,1.7-0.9,3.4-0.9,5.3c0,2,0.3,3.8,0.9,5.5s1.5,3.1,2.6,4.3s2.4,2.1,3.9,2.8s3.2,1,5.1,1s3.6-0.3,5.1-1
	s2.9-1.6,4-2.8s2-2.6,2.6-4.3C95.4,143.7,95.7,141.9,95.7,139.9z"/>
<path class="st2" d="M153.1,162.1l-17.6-28.7h-0.2l0.2,28.7h-10.3l0.1-43.9h12.1l17.6,28.7h0.2l-0.2-28.6h10.3l-0.1,43.9
	L153.1,162.1z"/>
<path class="st2" d="M209.6,162.2H199l-16.6-43.9h11.9l10.1,31.1h0.2l10.1-31.1h11.7L209.6,162.2z"/>
<path class="st2" d="M242.5,162.3l0.1-43.9h29.5v8.9h-19.3v8.3H271v8.5h-18.2v9.1h20.4v9.1L242.5,162.3z"/>
<path class="st2" d="M318.5,162.4L309,145h-3.6v17.4H295l0.1-43.9h16.7c2.1,0,4.2,0.2,6.2,0.7c2,0.4,3.8,1.2,5.4,2.2
	s2.9,2.4,3.8,4.1s1.4,3.8,1.4,6.3c0,3-0.8,5.5-2.4,7.5s-3.8,3.5-6.7,4.3l11.4,18.8H318.5z M318.1,131.9c0-1-0.2-1.9-0.7-2.5
	c-0.4-0.6-1-1.1-1.7-1.5c-0.7-0.4-1.5-0.6-2.3-0.7c-0.9-0.1-1.7-0.2-2.5-0.2h-5.7v10.2h5c0.9,0,1.8-0.1,2.7-0.2
	c0.9-0.1,1.7-0.4,2.5-0.8c0.7-0.4,1.4-0.9,1.8-1.6C317.9,133.9,318.1,133,318.1,131.9z"/>
<path class="st2" d="M369.3,129.9c-0.9-1.2-2.1-2.1-3.6-2.8c-1.5-0.7-2.9-1-4.2-1c-0.7,0-1.4,0.1-2.1,0.2s-1.4,0.4-2,0.7
	c-0.6,0.4-1.1,0.8-1.5,1.4c-0.4,0.6-0.6,1.3-0.6,2.1c0,0.7,0.2,1.4,0.5,1.9s0.8,0.9,1.4,1.3c0.6,0.4,1.3,0.7,2.1,1
	c0.8,0.3,1.8,0.6,2.8,1c1.5,0.5,3,1,4.6,1.6s3.1,1.4,4.4,2.4s2.4,2.2,3.3,3.7s1.3,3.3,1.3,5.5c0,2.5-0.5,4.7-1.4,6.5
	s-2.2,3.4-3.8,4.6c-1.6,1.2-3.4,2.1-5.4,2.7s-4.1,0.9-6.3,0.9c-3.1,0-6.2-0.6-9.1-1.7c-2.9-1.1-5.4-2.7-7.3-4.7l7-7.1
	c1.1,1.3,2.5,2.4,4.2,3.3c1.8,0.9,3.5,1.3,5.2,1.3c0.8,0,1.5-0.1,2.3-0.2c0.7-0.2,1.4-0.4,2-0.8c0.6-0.4,1-0.9,1.3-1.5
	s0.5-1.4,0.5-2.2s-0.2-1.5-0.6-2.1s-1-1.1-1.8-1.6s-1.7-0.9-2.9-1.3c-1.1-0.4-2.4-0.8-3.9-1.3c-1.4-0.5-2.8-1-4.1-1.6
	s-2.5-1.4-3.6-2.4s-1.9-2.2-2.5-3.5c-0.6-1.4-1-3.1-1-5.1c0-2.4,0.5-4.5,1.5-6.3s2.3-3.2,3.9-4.3c1.6-1.1,3.4-1.9,5.5-2.4
	c2-0.5,4.1-0.8,6.1-0.8c2.5,0,5,0.5,7.6,1.4s4.8,2.3,6.8,4L369.3,129.9z"/>
<path class="st2" d="M391.4,162.4l0.1-43.9h10.7l-0.1,43.9H391.4z"/>
<path class="st2" d="M465.6,140.4c0,3.5-0.6,6.6-1.8,9.5c-1.2,2.9-2.9,5.3-5,7.4c-2.1,2-4.7,3.6-7.6,4.7c-2.9,1.1-6.1,1.7-9.5,1.7
	s-6.6-0.6-9.5-1.7c-2.9-1.1-5.4-2.7-7.6-4.8c-2.1-2-3.8-4.5-5-7.4s-1.8-6-1.8-9.5s0.6-6.7,1.8-9.5c1.2-2.8,2.9-5.2,5-7.2
	s4.7-3.5,7.6-4.6s6.1-1.6,9.5-1.6s6.6,0.5,9.5,1.6s5.5,2.6,7.6,4.6s3.8,4.4,5,7.2C465,133.7,465.6,136.9,465.6,140.4z M454.2,140.4
	c0-1.9-0.3-3.7-0.9-5.3c-0.6-1.7-1.5-3.1-2.6-4.2c-1.1-1.2-2.4-2.1-4-2.8s-3.3-1-5.1-1c-1.9,0-3.6,0.3-5.1,1s-2.9,1.6-4,2.8
	s-2,2.6-2.6,4.2c-0.6,1.7-0.9,3.4-0.9,5.3c0,2,0.3,3.8,0.9,5.5s1.5,3.1,2.6,4.3s2.4,2.1,3.9,2.8s3.2,1,5.1,1s3.6-0.3,5.1-1
	s2.9-1.6,4-2.8s2-2.6,2.6-4.3C453.9,144.2,454.2,142.4,454.2,140.4z"/>
<path class="st2" d="M509.1,162.6l-17.6-28.7h-0.2l0.2,28.7h-10.3l0.1-43.9h12.1l17.6,28.7h0.2l-0.2-28.6h10.3l-0.1,43.9
	L509.1,162.6z"/>
<path class="st2" d="M30.7,204.4v34.8H20.1v-34.8H7.7v-9.1h35.4v9.1H30.7z"/>
<path class="st2" d="M56.5,239.3l0.1-43.9h29.5v8.9H66.8v8.3H85v8.5H66.8v9.1h20.4v9.1H56.5z"/>
<path class="st2" d="M134.3,238.6c-2.9,1.3-6.1,1.9-9.9,1.9c-3.4,0-6.5-0.6-9.4-1.7c-2.9-1.1-5.4-2.7-7.5-4.8c-2.1-2-3.8-4.5-5-7.4
	s-1.8-6-1.8-9.4c0-3.5,0.6-6.7,1.8-9.5c1.2-2.9,2.9-5.3,5.1-7.3s4.7-3.5,7.6-4.6s6-1.6,9.4-1.6c3.1,0,6.1,0.6,9.1,1.7
	c3,1.1,5.4,2.7,7.3,4.8l-7.2,7.2c-1-1.4-2.3-2.4-3.9-3s-3.3-1-5-1c-1.9,0-3.6,0.3-5.1,1c-1.6,0.7-2.9,1.6-4,2.8s-2,2.6-2.6,4.2
	s-0.9,3.4-0.9,5.4s0.3,3.8,0.9,5.5s1.5,3.1,2.6,4.3s2.4,2.1,3.9,2.8s3.2,1,5,1c2.1,0,3.9-0.4,5.5-1.2s2.8-1.9,3.8-3.2l7.4,7
	C139.5,235.5,137.1,237.3,134.3,238.6z"/>
<path class="st2" d="M183.6,239.4V221h-17.1v18.4h-10.6l0.1-43.9h10.6v16.6h17.1v-16.6h10.6l-0.1,43.9H183.6z"/>
<path class="st2" d="M239.9,239.5l-17.6-28.7h-0.2l0.2,28.7H212l0.1-43.9h12.1l17.6,28.7h0.2l-0.2-28.6h10.3l-0.1,43.9L239.9,239.5z
	"/>
<path class="st2" d="M314.2,217.5c0,3.5-0.6,6.6-1.8,9.5c-1.2,2.9-2.9,5.3-5,7.4c-2.1,2-4.7,3.6-7.6,4.7c-2.9,1.1-6.1,1.7-9.5,1.7
	s-6.6-0.6-9.5-1.7c-2.9-1.1-5.4-2.7-7.6-4.8s-3.8-4.5-5-7.4s-1.8-6-1.8-9.5s0.6-6.7,1.8-9.5c1.2-2.8,2.9-5.2,5-7.2s4.7-3.5,7.6-4.6
	s6.1-1.6,9.5-1.6s6.6,0.5,9.5,1.6s5.5,2.6,7.6,4.6s3.8,4.4,5,7.2C313.6,210.8,314.2,214,314.2,217.5z M302.8,217.5
	c0-1.9-0.3-3.7-0.9-5.3s-1.5-3.1-2.6-4.2c-1.1-1.2-2.4-2.1-4-2.8c-1.5-0.7-3.3-1-5.1-1c-1.9,0-3.6,0.3-5.1,1s-2.9,1.6-4,2.8
	s-2,2.6-2.6,4.2c-0.6,1.7-0.9,3.4-0.9,5.3c0,2,0.3,3.8,0.9,5.5s1.5,3.1,2.6,4.3s2.4,2.1,3.9,2.8s3.2,1,5.1,1s3.6-0.3,5.1-1
	s2.9-1.6,4-2.8s2-2.6,2.6-4.3C302.5,221.3,302.8,219.4,302.8,217.5z"/>
<path class="st2" d="M328.6,239.6l0.1-43.9h10.7v34.7h17v9.2H328.6z"/>
<path class="st2" d="M414.4,217.6c0,3.5-0.6,6.6-1.8,9.5c-1.2,2.9-2.9,5.3-5,7.4c-2.1,2-4.7,3.6-7.6,4.7c-2.9,1.1-6.1,1.7-9.5,1.7
	s-6.6-0.6-9.5-1.7s-5.4-2.7-7.6-4.8s-3.8-4.5-5-7.4s-1.8-6-1.8-9.5s0.6-6.7,1.8-9.5c1.2-2.8,2.9-5.2,5-7.2s4.7-3.5,7.6-4.6
	s6.1-1.6,9.5-1.6s6.6,0.5,9.5,1.6s5.5,2.6,7.6,4.6s3.8,4.4,5,7.2C413.8,210.9,414.4,214.1,414.4,217.6z M403.1,217.6
	c0-1.9-0.3-3.7-0.9-5.3s-1.5-3.1-2.6-4.3s-2.4-2.1-4-2.8c-1.5-0.7-3.3-1-5.1-1c-1.9,0-3.6,0.3-5.1,1s-2.9,1.6-4,2.8s-2,2.6-2.6,4.2
	c-0.6,1.7-0.9,3.4-0.9,5.3c0,2,0.3,3.8,0.9,5.5s1.5,3.1,2.6,4.3s2.4,2.1,3.9,2.8s3.2,1,5.1,1s3.6-0.3,5.1-1s2.9-1.6,4-2.8
	s2-2.6,2.6-4.3C402.8,221.4,403.1,219.6,403.1,217.6z"/>
<path class="st2" d="M461.5,239.9c-2.9,0.7-6,1-9.4,1c-3.5,0-6.7-0.6-9.7-1.7c-3-1.1-5.5-2.7-7.6-4.7s-3.8-4.5-5-7.3s-1.8-6-1.8-9.5
	s0.6-6.7,1.8-9.5c1.2-2.9,2.9-5.3,5.1-7.3s4.7-3.5,7.6-4.6s6-1.6,9.4-1.6c3.5,0,6.7,0.5,9.7,1.6s5.4,2.5,7.2,4.3l-6.7,7.6
	c-1-1.2-2.4-2.2-4.1-3s-3.6-1.2-5.8-1.2c-1.9,0-3.6,0.3-5.1,1c-1.6,0.7-2.9,1.6-4.1,2.8s-2.1,2.7-2.7,4.3c-0.6,1.7-1,3.5-1,5.5
	s0.3,3.9,0.9,5.6c0.6,1.7,1.4,3.2,2.6,4.4c1.1,1.2,2.5,2.2,4.2,2.9s3.6,1,5.7,1c1.2,0,2.4-0.1,3.5-0.3s2.1-0.5,3.1-0.9v-8h-8.4v-8.6
	H469v23.2C466.9,238.3,464.4,239.2,461.5,239.9z"/>
<path class="st2" d="M506.6,221.3v18.6H496v-18.6L479.5,196h12.8l9.3,16.3l9.4-16.2h12.4L506.6,221.3z"/>
</svg>
