<svg xmlns="http://www.w3.org/2000/svg" viewBox="0 0 30 41"><defs><style>.cls-1{fill:none;stroke:#ec6c00;stroke-linecap:round;stroke-linejoin:round;stroke-width:2px;}</style></defs><title>アセット 1</title><g id="レイヤー_2" data-name="レイヤー 2"><g id="レイヤー_1-2" data-name="レイヤー 1"><polyline class="cls-1" points="18 32 20 34 24 30"/><path class="cls-1" d="M12,39H4a3,3,0,0,1-3-3V4A3,3,0,0,1,4,1H5"/><path class="cls-1" d="M5,1H18a3,3,0,0,1,3,3V20"/><path class="cls-1" d="M17,1,15.22,4.45A1,1,0,0,1,14.3,5H7.7a1,1,0,0,1-.92-.55L5,1"/><circle class="cls-1" cx="21" cy="32" r="8"/></g></g></svg>