<svg xmlns="http://www.w3.org/2000/svg" viewBox="0 0 1579.04 1300.46"><defs><style>.cls-1{fill:#fcd118;}.cls-2{fill:#5ed45e;}.cls-3{fill:#1e243a;}</style></defs><title>アセット 1</title><g id="レイヤー_2" data-name="レイヤー 2"><g id="Color"><rect class="cls-1" x="659.04" y="180.46" width="848" height="170"/><path class="cls-2" d="M1529.89,13.46H636.19c-23,0-42.15,18.65-42.15,41.65v66.35h977V55.11C1571,32.11,1552.89,13.46,1529.89,13.46ZM663.56,86.31a15.7,15.7,0,1,1,15.7-15.7A15.7,15.7,0,0,1,663.56,86.31Zm63.16,0a15.7,15.7,0,1,1,15.7-15.7A15.7,15.7,0,0,1,726.72,86.31Z"/></g><g id="WEB"><path class="cls-3" d="M354.54,177a7.5,7.5,0,0,1-7.5-7.5v-45a7.5,7.5,0,1,1,15,0v45A7.5,7.5,0,0,1,354.54,177Z"/><path class="cls-3" d="M377,154.46H332a7.5,7.5,0,0,1,0-15h45a7.5,7.5,0,0,1,0,15Z"/><path class="cls-3" d="M95.54,403a7.5,7.5,0,0,1-7.5-7.5v-45a7.5,7.5,0,0,1,15,0v45A7.5,7.5,0,0,1,95.54,403Z"/><path class="cls-3" d="M118,380.46H73a7.5,7.5,0,0,1,0-15h45a7.5,7.5,0,1,1,0,15Z"/><path class="cls-3" d="M1419.54,988a7.5,7.5,0,0,1-7.5-7.5v-45a7.5,7.5,0,0,1,15,0v45A7.5,7.5,0,0,1,1419.54,988Z"/><path class="cls-3" d="M1442,965.46h-45a7.5,7.5,0,0,1,0-15h45a7.5,7.5,0,0,1,0,15Z"/><path class="cls-3" d="M948.54,1261a7.5,7.5,0,0,1-7.5-7.5v-45a7.5,7.5,0,0,1,15,0v45A7.5,7.5,0,0,1,948.54,1261Z"/><path class="cls-3" d="M971,1238.46H926a7.5,7.5,0,0,1,0-15h45a7.5,7.5,0,0,1,0,15Z"/><path class="cls-3" d="M63,100.93A9.9,9.9,0,0,1,72.71,90.8h0A9.85,9.85,0,0,1,83,100.38h0a9.77,9.77,0,0,1-9.75,10.08H73A9.8,9.8,0,0,1,63,100.93ZM33.34,95.46h0a10,10,0,0,1-.27-14.17h0A10,10,0,0,1,47.22,81h0a10,10,0,0,1,.27,14.13h0a10,10,0,0,1-7.21,3.08h0A9.4,9.4,0,0,1,33.34,95.46ZM98.1,93.87a10,10,0,0,1-.44-14.14h0a10,10,0,0,1,14.14-.44h0a10,10,0,0,1,.44,14.14h0A10,10,0,0,1,105,96.58h0A10,10,0,0,1,98.1,93.87ZM16.36,56.36a10.1,10.1,0,0,1,9.88-10.22h0a10.13,10.13,0,0,1,10.12,10h0a10.09,10.09,0,0,1-9.87,10.28h-.13A10.19,10.19,0,0,1,16.36,56.36ZM107.25,54h0a9.88,9.88,0,0,1,9.62-10.24h0a9.78,9.78,0,0,1,10.36,9.73h0a9.89,9.89,0,0,1-9.63,10h-.38A9.88,9.88,0,0,1,107.25,54ZM32.45,30.63a10,10,0,0,1-.09-14.14h0A10,10,0,0,1,46.5,16.4h0a10,10,0,0,1,.09,14.15h0a10,10,0,0,1-7.12,3h0A9.92,9.92,0,0,1,32.45,30.63Zm63.31-1.32h0a10,10,0,0,1-.61-14.13h0a10,10,0,0,1,14.13-.61h0a10,10,0,0,1,.61,14.13h0a10,10,0,0,1-7.37,3.24h0A10,10,0,0,1,95.76,29.31ZM61.82,10a10,10,0,0,1,10-10h0a10,10,0,0,1,10,10h0a10,10,0,0,1-10,10h0A10,10,0,0,1,61.82,10Z"/><path class="cls-3" d="M482,424.93a9.91,9.91,0,0,1,9.75-10.14h0A9.87,9.87,0,0,1,502,424.38h0a9.77,9.77,0,0,1-9.75,10.08H492A9.8,9.8,0,0,1,482,424.93Zm-29.61-5.53h0a10,10,0,0,1-.27-14.14h0a10,10,0,0,1,14.14-.26h0a10,10,0,0,1,.27,14.14h0a10,10,0,0,1-7.21,3.06h0A10,10,0,0,1,452.35,419.4Zm64.75-1.53a10,10,0,0,1-.44-14.14h0a10,10,0,0,1,14.14-.44h0a10,10,0,0,1,.44,14.14h0a10,10,0,0,1-7.29,3.15h0A10,10,0,0,1,517.1,417.87Zm-81.74-37.51a10.1,10.1,0,0,1,9.88-10.22h0a10.13,10.13,0,0,1,10.12,10h0a10.09,10.09,0,0,1-9.87,10.28h-.13A10.2,10.2,0,0,1,435.36,380.36ZM526.25,378h0a9.92,9.92,0,0,1,9.62-10.28h0a9.9,9.9,0,0,1,10.36,9.51h0a9.78,9.78,0,0,1-9.62,10.26h-.38A9.88,9.88,0,0,1,526.25,378Zm-74.8-23.34a10,10,0,0,1-.09-14.14h0a10,10,0,0,1,14.14-.09h0a10,10,0,0,1,.09,14.15h0a10,10,0,0,1-7.12,3h0A9.93,9.93,0,0,1,451.45,354.63Zm63.31-1.32a10,10,0,0,1-.61-14.13h0a10,10,0,0,1,14.13-.61h0a10,10,0,0,1,.61,14.13h0a10,10,0,0,1-7.37,3.24h0A10,10,0,0,1,514.76,353.31ZM480.93,334A9.8,9.8,0,0,1,491,324h0a10.25,10.25,0,0,1,9.89,10h0a10,10,0,0,1-10,10h0A10,10,0,0,1,480.93,334Z"/><path class="cls-3" d="M1049,957.93a9.9,9.9,0,0,1,9.75-10.13h0a9.85,9.85,0,0,1,10.24,9.58h0a9.77,9.77,0,0,1-9.75,10.08H1059A9.8,9.8,0,0,1,1049,957.93Zm-29.61-5.53a10,10,0,0,1-.27-14.14h0a10,10,0,0,1,14.14-.26h0a10,10,0,0,1,.27,14.14h0a10,10,0,0,1-7.21,3.06h0A10,10,0,0,1,1019.35,952.4Zm64.75-1.53a10,10,0,0,1-.44-14.14h0a10,10,0,0,1,14.14-.44h0a10,10,0,0,1,.44,14.14h0a10,10,0,0,1-7.29,3.15h0A10,10,0,0,1,1084.1,950.87Zm-81.73-37.51a10.09,10.09,0,0,1,9.87-10.22h0a10.13,10.13,0,0,1,10.12,10h0a10.09,10.09,0,0,1-9.87,10.28h-.13A10.18,10.18,0,0,1,1002.37,913.36Zm90.88-2.24a10,10,0,0,1,9.62-10.36h0a10,10,0,0,1,10.36,9.62h0a10,10,0,0,1-9.62,10.36h-.38A10,10,0,0,1,1093.25,911.12Zm-74.8-23.49a10,10,0,0,1-.09-14.14h0a10,10,0,0,1,14.14-.08h0a10,10,0,0,1,.09,14.14h0a10,10,0,0,1-7.12,3h0A10,10,0,0,1,1018.45,887.63Zm63.31-1.32a10,10,0,0,1-.61-14.13h0a10,10,0,0,1,14.13-.61h0a10,10,0,0,1,.61,14.13h0a10,10,0,0,1-7.37,3.24h0A10,10,0,0,1,1081.76,886.31ZM1047.82,867a10,10,0,0,1,10-10h0a10,10,0,0,1,10,10h0a10,10,0,0,1-10,10h0A10,10,0,0,1,1047.82,867Z"/><path class="cls-3" d="M1479,1276.93a9.91,9.91,0,0,1,9.75-10.14h0a9.87,9.87,0,0,1,10.24,9.59h0a9.77,9.77,0,0,1-9.75,10.08H1489A9.81,9.81,0,0,1,1479,1276.93Zm-29.61-5.53a10,10,0,0,1-.27-14.14h0a10,10,0,0,1,14.14-.26h0a10,10,0,0,1,.27,14.14h0a10,10,0,0,1-7.21,3.06h0A10,10,0,0,1,1449.35,1271.4Zm64.75-1.53a10,10,0,0,1-.44-14.14h0a10,10,0,0,1,14.14-.44h0a10,10,0,0,1,.44,14.14h0a10,10,0,0,1-7.29,3.15h0A10,10,0,0,1,1514.1,1269.87Zm-81.74-37.51a10.1,10.1,0,0,1,9.88-10.22h0a10.13,10.13,0,0,1,10.12,10h0a10.09,10.09,0,0,1-9.87,10.28h-.13A10.2,10.2,0,0,1,1432.36,1232.36Zm90.89-2.39a9.88,9.88,0,0,1,9.62-10.24h0a9.78,9.78,0,0,1,10.36,9.73h0a9.89,9.89,0,0,1-9.63,10h-.37A9.87,9.87,0,0,1,1523.25,1230Zm-74.8-23.34a10,10,0,0,1-.09-14.14h0a10,10,0,0,1,14.14-.09h0a10,10,0,0,1,.09,14.15h0a10,10,0,0,1-7.12,3h0A10,10,0,0,1,1448.45,1206.63Zm63.31-1.32a10,10,0,0,1-.61-14.13h0a10,10,0,0,1,14.13-.61h0a10,10,0,0,1,.61,14.13h0a10,10,0,0,1-7.37,3.24h0A10,10,0,0,1,1511.76,1205.31ZM1477.93,1186a9.8,9.8,0,0,1,10.11-10h0a10.25,10.25,0,0,1,9.89,10h0a10,10,0,0,1-10,10h0A10,10,0,0,1,1477.93,1186Z"/><path class="cls-3" d="M926,1014.46H14a7.5,7.5,0,1,1,0-15H926a7.5,7.5,0,0,1,0,15Z"/><path class="cls-3" d="M363.54,1297a7.5,7.5,0,0,1-7.5-7.5v-174a7.5,7.5,0,0,1,15,0v174A7.5,7.5,0,0,1,363.54,1297Z"/><path class="cls-3" d="M577.54,1297a7.5,7.5,0,0,1-7.5-7.5v-174a7.5,7.5,0,0,1,15,0v174A7.5,7.5,0,0,1,577.54,1297Z"/><path class="cls-3" d="M671,1300.46H270a7.5,7.5,0,1,1,0-15H671a7.5,7.5,0,0,1,0,15Z"/><path class="cls-3" d="M470,1087.43a28.74,28.74,0,1,1,28.73-28.74A28.77,28.77,0,0,1,470,1087.43Zm0-42.47a13.74,13.74,0,1,0,13.73,13.73A13.76,13.76,0,0,0,470,1045Z"/><path class="cls-3" d="M895.36,1120.14H43.9A44,44,0,0,1,0,1076.24V512.39a44,44,0,0,1,43.9-43.9H588.55a7.5,7.5,0,0,1,0,15H43.9A28.94,28.94,0,0,0,15,512.39v563.85a28.94,28.94,0,0,0,28.9,28.9H895.36a28.94,28.94,0,0,0,28.9-28.9V821.46a7.5,7.5,0,0,1,15,0v254.78A44,44,0,0,1,895.36,1120.14Z"/><path class="cls-3" d="M1539.67,821.46H626.88A39.78,39.78,0,0,1,587,781.83V46.9c0-21.2,17.56-38.44,39.15-38.44h914.14c21.35,0,38.71,17,38.71,38V782.31A39.3,39.3,0,0,1,1539.67,821.46Zm-913.48-798C612.87,23.46,602,34,602,46.9V781.83a24.76,24.76,0,0,0,24.84,24.63h912.79A24.28,24.28,0,0,0,1564,782.31V46.45c0-12.68-10.64-23-23.71-23Z"/><path class="cls-3" d="M1452,131.46H602a7.5,7.5,0,1,1,0-15h850a7.5,7.5,0,0,1,0,15Z"/><path class="cls-3" d="M785.54,125a7.5,7.5,0,0,1-7.5-7.5v-95a7.5,7.5,0,0,1,15,0v95A7.5,7.5,0,0,1,785.54,125Z"/><path class="cls-3" d="M663.56,91.81a23.2,23.2,0,1,1,23.2-23.2A23.23,23.23,0,0,1,663.56,91.81Zm0-31.4a8.2,8.2,0,1,0,8.2,8.2A8.21,8.21,0,0,0,663.56,60.41Z"/><path class="cls-3" d="M726.72,91.81a23.2,23.2,0,1,1,23.2-23.2A23.22,23.22,0,0,1,726.72,91.81Zm0-31.4a8.2,8.2,0,1,0,8.2,8.2A8.21,8.21,0,0,0,726.72,60.41Z"/><path class="cls-3" d="M1330,62.46H840a7.5,7.5,0,0,1,0-15h490a7.5,7.5,0,0,1,0,15Z"/><path class="cls-3" d="M1103,93.46H840a7.5,7.5,0,0,1,0-15h263a7.5,7.5,0,0,1,0,15Z"/><path class="cls-3" d="M1562,131.46h-49a7.5,7.5,0,1,1,0-15h49a7.5,7.5,0,0,1,0,15Z"/><path class="cls-3" d="M1515,350a7.5,7.5,0,0,1-7.5,7.5h-848A7.5,7.5,0,0,1,652,350V180a7.5,7.5,0,0,1,7.5-7.5h848a7.5,7.5,0,0,1,7.5,7.5Zm-848-7.5h833v-155H667Z"/><path class="cls-3" d="M1508,742.46H659a7.5,7.5,0,0,1,0-15h849a7.5,7.5,0,0,1,0,15Z"/><path class="cls-3" d="M797,555a7.5,7.5,0,0,1-7.5,7.5h-130A7.5,7.5,0,0,1,652,555V425a7.5,7.5,0,0,1,7.5-7.5h130A7.5,7.5,0,0,1,797,425Zm-130-7.5H782v-115H667Z"/><path class="cls-3" d="M1036,555a7.5,7.5,0,0,1-7.5,7.5h-130A7.5,7.5,0,0,1,891,555V425a7.5,7.5,0,0,1,7.5-7.5h130a7.5,7.5,0,0,1,7.5,7.5Zm-130-7.5h115v-115H906Z"/><path class="cls-3" d="M1275,555a7.5,7.5,0,0,1-7.5,7.5h-130a7.5,7.5,0,0,1-7.5-7.5V425a7.5,7.5,0,0,1,7.5-7.5h130a7.5,7.5,0,0,1,7.5,7.5Zm-130-7.5h115v-115H1145Z"/><path class="cls-3" d="M1515,555a7.5,7.5,0,0,1-7.5,7.5h-131a7.5,7.5,0,0,1-7.5-7.5V425a7.5,7.5,0,0,1,7.5-7.5h131a7.5,7.5,0,0,1,7.5,7.5Zm-131-7.5h116v-115H1384Z"/><path class="cls-3" d="M1508,661.46H659a7.5,7.5,0,0,1,0-15h849a7.5,7.5,0,0,1,0,15Z"/><path class="cls-3" d="M300,682.46H96a7.5,7.5,0,1,1,0-15H300a7.5,7.5,0,0,1,0,15Z"/><path class="cls-3" d="M473,682.46H418a7.5,7.5,0,1,1,0-15h55a7.5,7.5,0,0,1,0,15Z"/><path class="cls-3" d="M449,801.46H300a7.5,7.5,0,1,1,0-15H449a7.5,7.5,0,0,1,0,15Z"/><path class="cls-3" d="M190,801.46H156a7.5,7.5,0,1,1,0-15h34a7.5,7.5,0,0,1,0,15Z"/><path class="cls-3" d="M390,562.46H320a7.5,7.5,0,1,1,0-15h70a7.5,7.5,0,0,1,0,15Z"/><path class="cls-3" d="M491,562.46H470a7.5,7.5,0,1,1,0-15h21a7.5,7.5,0,0,1,0,15Z"/></g></g></svg>