<svg xmlns="http://www.w3.org/2000/svg" viewBox="0 0 1575.5 1299"><defs><style>.cls-1{fill:#fcd118;}.cls-2{fill:#5ed45e;}.cls-3{fill:#1e243a;}</style></defs><title>アセット 1</title><g id="レイヤー_2" data-name="レイヤー 2"><g id="Color"><path class="cls-1" d="M1003.82,151.1a16.65,16.65,0,0,0-16.64,16.67l0,30.48a21.22,21.22,0,0,1-15.64,20.42,223,223,0,0,0-44.14,17.57,21.16,21.16,0,0,1-24.89-3.67l-21.19-21.19a16.63,16.63,0,0,0-23.53,0l-49.31,49.31a16.65,16.65,0,0,0,0,23.54l21.33,21.33a21,21,0,0,1,3.9,24.48,239.25,239.25,0,0,0-17.64,44.53,21,21,0,0,1-20.34,15.27l-30.48-.09a16.64,16.64,0,0,0-16.69,16.66l.06,68.33a16.64,16.64,0,0,0,16.67,16.63l34.82-.05a21.2,21.2,0,0,1,20.05,14.42,226.91,226.91,0,0,0,18.23,39.85A21,21,0,0,1,835.26,571l-26.74,26.74a16.63,16.63,0,0,0,0,23.53l48.22,48.23a16.65,16.65,0,0,0,23.54,0l30.81-30.82a21.25,21.25,0,0,1,24.23-4,215.94,215.94,0,0,0,36,13.37A21.2,21.2,0,0,1,987,668.41l.05,44.62a16.64,16.64,0,0,0,16.63,16.62h29.44V151.1Zm-69,377a135,135,0,0,1,95.47-230.51V567.64A134.61,134.61,0,0,1,934.78,528.1Z"/><path class="cls-2" d="M1011.35,8H35.65C20.93,8,9,19.43,9,34.15V107H1038V34.15C1038,19.43,1026.07,8,1011.35,8ZM63.81,72.65A17.58,17.58,0,1,1,81.39,55.07,17.58,17.58,0,0,1,63.81,72.65Zm70.7,0a17.58,17.58,0,1,1,17.58-17.58A17.58,17.58,0,0,1,134.51,72.65Z"/><path class="cls-2" d="M1525.4,609H1042.2V729.5H1568V651.6A42.6,42.6,0,0,0,1525.4,609Z"/></g><g id="PROGRAMMING"><path class="cls-3" d="M1004.67,796H40.44C18.14,796,0,778.06,0,756V37.27A37.38,37.38,0,0,1,37.41,0H1008a36.93,36.93,0,0,1,37,36.8V756.16C1045,778.13,1026.91,796,1004.67,796ZM37.41,15A22.36,22.36,0,0,0,15,37.27V756a25.24,25.24,0,0,0,25.44,25h964.23c14,0,25.33-11.14,25.33-24.84V36.8A21.92,21.92,0,0,0,1008,15Z"/><path class="cls-3" d="M935,114H9A7.5,7.5,0,0,1,9,99H935a7.5,7.5,0,0,1,0,15Z"/><path class="cls-3" d="M189.5,105.5A7.5,7.5,0,0,1,182,98V14a7.5,7.5,0,0,1,15,0V98A7.5,7.5,0,0,1,189.5,105.5Z"/><path class="cls-3" d="M63.81,80.15A25.08,25.08,0,1,1,88.89,55.07,25.11,25.11,0,0,1,63.81,80.15Zm0-35.16A10.08,10.08,0,1,0,73.89,55.07,10.09,10.09,0,0,0,63.81,45Z"/><path class="cls-3" d="M134.51,80.15a25.08,25.08,0,1,1,25.08-25.08A25.11,25.11,0,0,1,134.51,80.15Zm0-35.16a10.08,10.08,0,1,0,10.08,10.08A10.09,10.09,0,0,0,134.51,45Z"/><path class="cls-3" d="M778,47H229a7.5,7.5,0,0,1,0-15H778a7.5,7.5,0,0,1,0,15Z"/><path class="cls-3" d="M524,82H229a7.5,7.5,0,0,1,0-15H524a7.5,7.5,0,0,1,0,15Z"/><path class="cls-3" d="M1038,114h-33a7.5,7.5,0,0,1,0-15h33a7.5,7.5,0,0,1,0,15Z"/><path class="cls-3" d="M1030.26,575.14a142.53,142.53,0,0,1,0-285,7.5,7.5,0,0,1,0,15,127.53,127.53,0,1,0,0,255.05,7.5,7.5,0,0,1,0,15Z"/><path class="cls-3" d="M1033.14,737.16H1003.7A24.18,24.18,0,0,1,979.57,713l-.05-44.61a13.74,13.74,0,0,0-10.19-13.15,225.24,225.24,0,0,1-37.24-13.84A13.79,13.79,0,0,0,916.4,644L885.58,674.8a24.16,24.16,0,0,1-34.14,0l-48.22-48.22a24.12,24.12,0,0,1,0-34.14L830,565.7a13.52,13.52,0,0,0,2-16.35,233.15,233.15,0,0,1-18.83-41.18,13.74,13.74,0,0,0-12.93-9.35h0l-34.82.05h0a24.14,24.14,0,0,1-24.14-24.12l-.06-68.34a24.16,24.16,0,0,1,24.14-24.16h.07l30.48.09h0a13.56,13.56,0,0,0,13.06-9.8,245.62,245.62,0,0,1,18.2-45.94,13.48,13.48,0,0,0-2.54-15.74l-21.33-21.33a24.12,24.12,0,0,1,0-34.14l49.31-49.31a24.12,24.12,0,0,1,34.14,0l21.19,21.18a13.61,13.61,0,0,0,16.08,2.35,230.4,230.4,0,0,1,45.62-18.17,13.79,13.79,0,0,0,10.16-13.18l0-30.48a24.16,24.16,0,0,1,24.14-24.18h29.31a7.5,7.5,0,0,1,0,15h-29.31a9.15,9.15,0,0,0-9.14,9.16l0,30.48a28.82,28.82,0,0,1-21.13,27.65,215.7,215.7,0,0,0-42.64,17,28.56,28.56,0,0,1-33.7-5l-21.19-21.19a9.13,9.13,0,0,0-12.92,0L813.82,266a9.13,9.13,0,0,0,0,12.92l21.34,21.34a28.4,28.4,0,0,1,5.25,33.22,230.68,230.68,0,0,0-17.08,43.12,28.61,28.61,0,0,1-27.5,20.74h-.08l-30.48-.09h0a9.15,9.15,0,0,0-9.14,9.15l.06,68.34a9.13,9.13,0,0,0,9.14,9.13h0l34.83-.05h0a28.72,28.72,0,0,1,27.11,19.48,218.82,218.82,0,0,0,17.63,38.53,28.55,28.55,0,0,1-4.36,34.47L813.82,603a9.14,9.14,0,0,0,0,12.93l48.23,48.23a9.15,9.15,0,0,0,12.92,0l30.82-30.82a28.83,28.83,0,0,1,32.76-5.49A209.41,209.41,0,0,0,973.3,640.8a28.79,28.79,0,0,1,21.22,27.61l.05,44.61a9.16,9.16,0,0,0,9.14,9.13h29.43a7.5,7.5,0,0,1,0,15Z"/><path class="cls-3" d="M1524.79,1287.78H700.13a51,51,0,0,1-51-51V797.13a7.5,7.5,0,0,1,15,0v439.68a36,36,0,0,0,36,36h824.66a35.57,35.57,0,0,0,35.53-35.53V650a33.55,33.55,0,0,0-33.52-33.51H1042.2a7.5,7.5,0,0,1,0-15h484.6A48.57,48.57,0,0,1,1575.32,650v587.24A50.59,50.59,0,0,1,1524.79,1287.78Z"/><path class="cls-3" d="M1464,737H1045a7.5,7.5,0,0,1,0-15h419a7.5,7.5,0,0,1,0,15Z"/><path class="cls-3" d="M1303,675H1045a7.5,7.5,0,0,1,0-15h258a7.5,7.5,0,0,1,0,15Z"/><path class="cls-3" d="M1568,737h-35a7.5,7.5,0,0,1,0-15h35a7.5,7.5,0,0,1,0,15Z"/><path class="cls-3" d="M1011,864H761a7.5,7.5,0,0,1,0-15h250a7.5,7.5,0,0,1,0,15Z"/><path class="cls-3" d="M1011,957H761a7.5,7.5,0,0,1,0-15h250a7.5,7.5,0,0,1,0,15Z"/><path class="cls-3" d="M1011,1052H761a7.5,7.5,0,0,1,0-15h250a7.5,7.5,0,0,1,0,15Z"/><path class="cls-3" d="M1011,1145H761a7.5,7.5,0,0,1,0-15h250a7.5,7.5,0,0,1,0,15Z"/><path class="cls-3" d="M1462,864H1212a7.5,7.5,0,0,1,0-15h250a7.5,7.5,0,0,1,0,15Z"/><path class="cls-3" d="M1462,957H1212a7.5,7.5,0,0,1,0-15h250a7.5,7.5,0,0,1,0,15Z"/><path class="cls-3" d="M1462,1052H1212a7.5,7.5,0,0,1,0-15h250a7.5,7.5,0,0,1,0,15Z"/><path class="cls-3" d="M1462,1145H1212a7.5,7.5,0,0,1,0-15h250a7.5,7.5,0,0,1,0,15Z"/><path class="cls-3" d="M1143,864h-63a7.5,7.5,0,0,1,0-15h63a7.5,7.5,0,0,1,0,15Z"/><path class="cls-3" d="M1143,957h-63a7.5,7.5,0,0,1,0-15h63a7.5,7.5,0,0,1,0,15Z"/><path class="cls-3" d="M1143,1052h-63a7.5,7.5,0,0,1,0-15h63a7.5,7.5,0,0,1,0,15Z"/><path class="cls-3" d="M1143,1145h-63a7.5,7.5,0,0,1,0-15h63a7.5,7.5,0,0,1,0,15Z"/><path class="cls-3" d="M330.06,510.13a69.75,69.75,0,1,1,69.75-69.75A69.83,69.83,0,0,1,330.06,510.13Zm0-124.5a54.75,54.75,0,1,0,54.75,54.75A54.81,54.81,0,0,0,330.06,385.63Z"/><path class="cls-3" d="M333.68,602.6a7.5,7.5,0,0,1-.17-15,147.91,147.91,0,0,0,23.63-2.44,7.5,7.5,0,1,1,2.74,14.74,162.82,162.82,0,0,1-26,2.7Zm-44.49-5.41a7.5,7.5,0,0,1-2-.27A162,162,0,0,1,262.59,588a7.5,7.5,0,1,1,6.25-13.64,146.59,146.59,0,0,0,22.32,8.1,7.5,7.5,0,0,1-2,14.74ZM400.93,585.5a7.5,7.5,0,0,1-3.45-14.16,148,148,0,0,0,20.17-12.57,7.5,7.5,0,0,1,8.94,12.05,163.68,163.68,0,0,1-22.23,13.85A7.54,7.54,0,0,1,400.93,585.5ZM228.08,564.3a7.53,7.53,0,0,1-4.94-1.86,164.16,164.16,0,0,1-18.23-18.78,7.5,7.5,0,1,1,11.56-9.55,149.82,149.82,0,0,0,16.56,17,7.5,7.5,0,0,1-4.95,13.14Zm225.83-23.61a7.5,7.5,0,0,1-6-12A147.54,147.54,0,0,0,460.6,508.6a7.5,7.5,0,0,1,13.29,7,163.18,163.18,0,0,1-14,22.13A7.52,7.52,0,0,1,453.91,540.69ZM187.44,508.06a7.49,7.49,0,0,1-6.91-4.59,160,160,0,0,1-8.2-24.88,7.5,7.5,0,0,1,14.58-3.52,146.83,146.83,0,0,0,7.43,22.57,7.48,7.48,0,0,1-4,9.82A7.33,7.33,0,0,1,187.44,508.06ZM482,477.27a7.68,7.68,0,0,1-1.42-.14,7.5,7.5,0,0,1-5.95-8.78,147.93,147.93,0,0,0,2.59-23.62,7.5,7.5,0,1,1,15,.44,162.74,162.74,0,0,1-2.85,26A7.5,7.5,0,0,1,482,477.27ZM175.52,439.69h-.4a7.5,7.5,0,0,1-7.1-7.88,163.37,163.37,0,0,1,3.46-25.94A7.5,7.5,0,0,1,186.14,409,147.61,147.61,0,0,0,183,432.58,7.5,7.5,0,0,1,175.52,439.69Zm304.09-31.77a7.49,7.49,0,0,1-7.24-5.57,146.74,146.74,0,0,0-8-22.38,7.5,7.5,0,1,1,13.68-6.16,161,161,0,0,1,8.78,24.68,7.5,7.5,0,0,1-5.31,9.18A7.65,7.65,0,0,1,479.61,407.92ZM194.59,373A7.51,7.51,0,0,1,188,361.85a162.91,162.91,0,0,1,14.49-21.79,7.5,7.5,0,1,1,11.78,9.28,148.93,148.93,0,0,0-13.15,19.78A7.5,7.5,0,0,1,194.59,373Zm252.5-26.38a7.5,7.5,0,0,1-5.67-2.59,149,149,0,0,0-16.95-16.66,7.5,7.5,0,0,1,9.63-11.51,164.16,164.16,0,0,1,18.66,18.35,7.5,7.5,0,0,1-5.67,12.41ZM240.94,321.34a7.5,7.5,0,0,1-4.33-13.63,162.83,162.83,0,0,1,22.55-13.32,7.5,7.5,0,0,1,6.56,13.49A147.76,147.76,0,0,0,245.26,320,7.43,7.43,0,0,1,240.94,321.34Zm150.15-15.72a7.36,7.36,0,0,1-2.95-.61,146.31,146.31,0,0,0-22.51-7.57,7.5,7.5,0,0,1,3.61-14.56,162,162,0,0,1,24.82,8.35,7.5,7.5,0,0,1-3,14.39Zm-85.92-10.51A7.5,7.5,0,0,1,304,280.2a164.51,164.51,0,0,1,26.08-2.08,7.5,7.5,0,1,1,0,15A149.8,149.8,0,0,0,306.37,295,6.94,6.94,0,0,1,305.17,295.11Z"/><path class="cls-3" d="M330.06,661a7.5,7.5,0,1,1,0-15c113.38,0,205.62-92.24,205.62-205.62a7.5,7.5,0,0,1,15,0A220.61,220.61,0,0,1,330.06,661Z"/><path class="cls-3" d="M116.94,447.88a7.5,7.5,0,0,1-7.5-7.5A220.59,220.59,0,0,1,330.06,219.76a7.5,7.5,0,0,1,0,15c-113.38,0-205.62,92.24-205.62,205.62A7.5,7.5,0,0,1,116.94,447.88Z"/><path class="cls-3" d="M1092,306h-12a7.5,7.5,0,0,1,0-15h12a7.5,7.5,0,0,1,0,15Z"/><path class="cls-3" d="M1372,306h-25a7.5,7.5,0,0,1,0-15h25a7.5,7.5,0,0,1,0,15Zm-70,0h-25a7.5,7.5,0,0,1,0-15h25a7.5,7.5,0,0,1,0,15Zm-70,0h-25a7.5,7.5,0,0,1,0-15h25a7.5,7.5,0,0,1,0,15Zm-70,0h-25a7.5,7.5,0,0,1,0-15h25a7.5,7.5,0,0,1,0,15Z"/><path class="cls-3" d="M1427.5,318.5a7.5,7.5,0,0,1-7.5-7.5v-5h-5a7.5,7.5,0,0,1,0-15h12.5a7.5,7.5,0,0,1,7.5,7.5V311A7.5,7.5,0,0,1,1427.5,318.5Z"/><path class="cls-3" d="M1427.5,510.5a7.5,7.5,0,0,1-7.5-7.5V480a7.5,7.5,0,0,1,15,0v23A7.5,7.5,0,0,1,1427.5,510.5Zm0-64a7.5,7.5,0,0,1-7.5-7.5V416a7.5,7.5,0,0,1,15,0v23A7.5,7.5,0,0,1,1427.5,446.5Zm0-64a7.5,7.5,0,0,1-7.5-7.5V352a7.5,7.5,0,0,1,15,0v23A7.5,7.5,0,0,1,1427.5,382.5Z"/><path class="cls-3" d="M1427.5,560.5a7.5,7.5,0,0,1-7.5-7.5V541a7.5,7.5,0,0,1,15,0v12A7.5,7.5,0,0,1,1427.5,560.5Z"/><path class="cls-3" d="M329.5,864.5A7.5,7.5,0,0,1,322,857V844a7.5,7.5,0,0,1,15,0v13A7.5,7.5,0,0,1,329.5,864.5Z"/><path class="cls-3" d="M329.5,1088.5a7.5,7.5,0,0,1-7.5-7.5v-27a7.5,7.5,0,0,1,15,0v27A7.5,7.5,0,0,1,329.5,1088.5Zm0-75a7.5,7.5,0,0,1-7.5-7.5V979a7.5,7.5,0,0,1,15,0v27A7.5,7.5,0,0,1,329.5,1013.5Zm0-75A7.5,7.5,0,0,1,322,931V904a7.5,7.5,0,0,1,15,0v27A7.5,7.5,0,0,1,329.5,938.5Z"/><path class="cls-3" d="M342,1147H329.5a7.5,7.5,0,0,1-7.5-7.5V1127a7.5,7.5,0,0,1,15,0v5h5a7.5,7.5,0,0,1,0,15Z"/><path class="cls-3" d="M528,1147H506a7.5,7.5,0,0,1,0-15h22a7.5,7.5,0,0,1,0,15Zm-62,0H444a7.5,7.5,0,0,1,0-15h22a7.5,7.5,0,0,1,0,15Zm-62,0H382a7.5,7.5,0,0,1,0-15h22a7.5,7.5,0,0,1,0,15Z"/><path class="cls-3" d="M580,1147H567a7.5,7.5,0,0,1,0-15h13a7.5,7.5,0,0,1,0,15Z"/><path class="cls-3" d="M40.5,1167.5A7.5,7.5,0,0,1,33,1160v-45a7.5,7.5,0,0,1,15,0v45A7.5,7.5,0,0,1,40.5,1167.5Z"/><path class="cls-3" d="M63,1145H18a7.5,7.5,0,0,1,0-15H63a7.5,7.5,0,0,1,0,15Z"/><path class="cls-3" d="M543.5,1278.5a7.5,7.5,0,0,1-7.5-7.5v-45a7.5,7.5,0,0,1,15,0v45A7.5,7.5,0,0,1,543.5,1278.5Z"/><path class="cls-3" d="M566,1256H521a7.5,7.5,0,0,1,0-15h45a7.5,7.5,0,0,1,0,15Z"/><path class="cls-3" d="M1234.5,181.5a7.5,7.5,0,0,1-7.5-7.5V129a7.5,7.5,0,0,1,15,0v45A7.5,7.5,0,0,1,1234.5,181.5Z"/><path class="cls-3" d="M1257,159h-45a7.5,7.5,0,0,1,0-15h45a7.5,7.5,0,0,1,0,15Z"/><path class="cls-3" d="M107.92,948.47a9.9,9.9,0,0,1,9.75-10.13h0a9.85,9.85,0,0,1,10.24,9.58h0A9.77,9.77,0,0,1,118.16,958h-.25A9.81,9.81,0,0,1,107.92,948.47ZM78.3,942.94h0A10,10,0,0,1,78,928.8h0a10,10,0,0,1,14.14-.26h0a10,10,0,0,1,.26,14.14h0a10,10,0,0,1-7.2,3.06h0A10,10,0,0,1,78.3,942.94Zm64.76-1.53a10,10,0,0,1-.44-14.14h0a10,10,0,0,1,14.13-.43h0a10,10,0,0,1,.44,14.16h0a10.34,10.34,0,0,1-7.29,3.13h0A10,10,0,0,1,143.06,941.41ZM61.32,903.9a10.1,10.1,0,0,1,9.88-10.22h0a10.13,10.13,0,0,1,10.12,10h0A10.09,10.09,0,0,1,71.45,914h-.13A10.19,10.19,0,0,1,61.32,903.9Zm90.89-2.39a9.92,9.92,0,0,1,9.62-10.28h0a9.91,9.91,0,0,1,10.36,9.52h0A9.78,9.78,0,0,1,162.57,911h-.38A9.87,9.87,0,0,1,152.21,901.51ZM77.4,878.17A10,10,0,0,1,77.32,864h0a10,10,0,0,1,14.14-.09h0a10,10,0,0,1,.09,14.14h0a10,10,0,0,1-7.12,3h0A10,10,0,0,1,77.4,878.17Zm63.32-1.32a10,10,0,0,1-.61-14.13h0a10,10,0,0,1,14.13-.61h0a10,10,0,0,1,.61,14.13h0a10,10,0,0,1-7.37,3.24h0A10,10,0,0,1,140.72,876.85Zm-33.83-19.31a9.8,9.8,0,0,1,10.11-10h0a10.25,10.25,0,0,1,9.89,10h0a10,10,0,0,1-10,10h0A10,10,0,0,1,106.89,857.54Z"/><path class="cls-3" d="M221.92,1289.47a9.91,9.91,0,0,1,9.75-10.14h0a9.87,9.87,0,0,1,10.24,9.59h0a9.77,9.77,0,0,1-9.75,10.08h-.25A9.81,9.81,0,0,1,221.92,1289.47Zm-29.62-5.53a10,10,0,0,1-.26-14.14h0a10,10,0,0,1,14.14-.26h0a10,10,0,0,1,.26,14.14h0a10,10,0,0,1-7.2,3.06h0A10,10,0,0,1,192.3,1283.94Zm64.76-1.53a10,10,0,0,1-.44-14.14h0a10,10,0,0,1,14.14-.44h0a10,10,0,0,1,.44,14.14h0a10,10,0,0,1-7.29,3.15h0A10,10,0,0,1,257.06,1282.41Zm-81.74-37.51a10.1,10.1,0,0,1,9.88-10.22h0a10.13,10.13,0,0,1,10.12,10h0a10.09,10.09,0,0,1-9.88,10.28h-.12A10.19,10.19,0,0,1,175.32,1244.9Zm90.89-2.39h0a9.92,9.92,0,0,1,9.62-10.28h0a9.93,9.93,0,0,1,10.37,9.52h0a9.79,9.79,0,0,1-9.63,10.25h-.37A9.88,9.88,0,0,1,266.21,1242.51Zm-74.8-23.34a10,10,0,0,1-.09-14.14h0a10,10,0,0,1,14.14-.09h0a10,10,0,0,1,.09,14.15h0a10,10,0,0,1-7.12,3h0A9.92,9.92,0,0,1,191.41,1219.17Zm63.31-1.32a10,10,0,0,1-.61-14.13h0a10,10,0,0,1,14.13-.61h0a10,10,0,0,1,.61,14.13h0a10,10,0,0,1-7.37,3.24h0A10,10,0,0,1,254.72,1217.85Zm-33.83-19.31a10,10,0,0,1,9.94-10h0a10.07,10.07,0,0,1,10.08,10h0a10.27,10.27,0,0,1-9.91,10h0S220.89,1204.07,220.89,1198.54Z"/><path class="cls-3" d="M1478.92,110.47a9.9,9.9,0,0,1,9.75-10.13h0a9.85,9.85,0,0,1,10.24,9.58h0a9.77,9.77,0,0,1-9.75,10.08h-.25A9.8,9.8,0,0,1,1478.92,110.47Zm-29.62-5.53A10,10,0,0,1,1449,90.8h0a10,10,0,0,1,14.14-.26h0a10,10,0,0,1,.26,14.14h0a10,10,0,0,1-7.2,3.06h0A10,10,0,0,1,1449.3,104.94Zm64.76-1.53a10,10,0,0,1-.44-14.14h0a10,10,0,0,1,14.14-.44h0a10,10,0,0,1,.44,14.14h0a10,10,0,0,1-7.29,3.15h0A10,10,0,0,1,1514.06,103.41ZM1432.32,65.9a10.1,10.1,0,0,1,9.88-10.22h0a10.13,10.13,0,0,1,10.12,10h0A10.09,10.09,0,0,1,1442.44,76h-.12A10.19,10.19,0,0,1,1432.32,65.9Zm90.89-2.39a9.92,9.92,0,0,1,9.62-10.28h0a9.92,9.92,0,0,1,10.37,9.52h0A9.79,9.79,0,0,1,1533.57,73h-.38A9.88,9.88,0,0,1,1523.21,63.51Zm-74.8-23.34a10,10,0,0,1-.09-14.14h0a10,10,0,0,1,14.14-.09h0a10,10,0,0,1,.09,14.15h0a10,10,0,0,1-7.12,3h0A9.93,9.93,0,0,1,1448.41,40.17Zm63.31-1.32h0a10,10,0,0,1-.61-14.13h0a10,10,0,0,1,14.13-.61h0a10,10,0,0,1,.61,14.13h0a10,10,0,0,1-7.37,3.24h0A10,10,0,0,1,1511.72,38.85Zm-33.94-19.31a10,10,0,0,1,10-10h0a10,10,0,0,1,10,10h0a10,10,0,0,1-10,10h0A10,10,0,0,1,1477.78,19.54Z"/></g></g></svg>