<svg xmlns="http://www.w3.org/2000/svg" viewBox="0 0 719.65 196.4"><defs><style>.cls-1{fill:#1a1a1a;}.cls-2{fill:#ec6c00;}.cls-3{fill:#bb1c24;}.cls-4{fill:#fff;}.cls-5{fill:#f5ab18;}.cls-6{fill:#f9bf11;}.cls-7{fill:#ffd518;}.cls-8{fill:#ef8200;}.cls-9{fill:#ee8000;}</style></defs><title>アセット 1</title><g id="レイヤー_2" data-name="レイヤー 2"><g id="通常版"><g id="色付き"><path class="cls-1" d="M399,97.2l-7.8,19.65H360l43.5-113.1h32.1l42.6,113.1H446.82L439.47,97.2Zm20.55-58.5h-.3l-12.15,36h24.45Z"/><path class="cls-1" d="M522.78,97.2,515,116.85h-31.2l43.5-113.1h32.1L602,116.85H570.63L563.28,97.2Zm20.55-58.5H543l-12.15,36h24.45Z"/><path class="cls-1" d="M718.92,58.2c0,36.6-26.25,62.4-62.54,62.4s-62.55-25.8-62.55-62.4c0-34.2,30-58.2,62.55-58.2S718.92,24,718.92,58.2Zm-94.49.15c0,19.5,14.4,33.75,32,33.75s31.94-14.25,31.94-33.75c0-15.6-14.4-29.85-31.94-29.85S624.43,42.75,624.43,58.35Z"/><path class="cls-2" d="M369.86,159.58,368,164.34h-7.55L371,137h7.77L389,164.34h-7.59l-1.78-4.76Zm5-14.15h-.08l-2.94,8.71h5.92Z"/><path class="cls-1" d="M398.56,164.34h-7.11V137h7.11Z"/><path class="cls-2" d="M420.25,159.58l-1.89,4.76h-7.55L421.34,137h7.76l10.31,27.37h-7.58l-1.78-4.76Zm5-14.15h-.07l-2.94,8.71h5.91Z"/><path class="cls-1" d="M442.35,137h10.09a13.69,13.69,0,1,1,0,27.37H442.35Zm7.12,21.34h1.6c4.24,0,7.87-2.32,7.87-7.66,0-4.9-3.23-7.65-7.8-7.65h-1.67Z"/><path class="cls-2" d="M508.82,150.15c0,8.85-6.35,15.1-15.14,15.1s-15.14-6.25-15.14-15.1c0-8.28,7.26-14.09,15.14-14.09S508.82,141.87,508.82,150.15Zm-22.87,0a7.74,7.74,0,1,0,15.46,0c0-3.77-3.48-7.22-7.73-7.22S486,146.41,486,150.18Z"/><path class="cls-1" d="M517.64,147.82h.07a6.62,6.62,0,0,1,5.63-2.72c5.55,0,9.4,4.65,9.4,10s-3.81,9.88-9.33,9.88a7.63,7.63,0,0,1-5.77-2.4v11.07H511V145.72h6.61Zm-.22,7.23a4.25,4.25,0,0,0,8.5,0,4.25,4.25,0,0,0-8.5,0Z"/><path class="cls-1" d="M542.5,164.34h-6.6V151.16h-2.14v-5.44h2.14v-5.59h6.6v5.59h3.74v5.44H542.5Z"/><path class="cls-1" d="M555.75,138.57a3.7,3.7,0,1,1-3.7-3.71A3.72,3.72,0,0,1,555.75,138.57Zm-.4,25.77h-6.6V145.72h6.6Z"/><path class="cls-1" d="M565.19,148h.07a7.41,7.41,0,0,1,12.24.62,7.11,7.11,0,0,1,6.31-3.56c4.72,0,6.36,3.09,6.36,7.37v11.87h-6.61v-8.89c0-1.93.07-5.09-2.72-5.09-3.05,0-3.16,2.87-3.16,5.09v8.89h-6.61v-8.89c0-2.07,0-5.23-2.94-5.23s-2.94,3.16-2.94,5.23v8.89h-6.61V145.72h6.61Z"/><path class="cls-1" d="M601.09,138.57a3.7,3.7,0,1,1-3.7-3.71A3.72,3.72,0,0,1,601.09,138.57Zm-.4,25.77h-6.6V145.72h6.6Z"/><path class="cls-1" d="M622.44,158.86v5.48H603.56l8.75-13.14h-7.59v-5.48h18.59l-8.72,13.14Z"/><path class="cls-1" d="M645.38,164.34h-6.61v-2.07h-.07a6.55,6.55,0,0,1-5.63,2.69c-5.52,0-9.4-4.61-9.4-10s3.81-9.91,9.33-9.91a7.61,7.61,0,0,1,5.77,2.43v-1.81h6.61Zm-14.89-9.29a4.25,4.25,0,0,0,8.5,0,4.25,4.25,0,0,0-8.5,0Z"/><path class="cls-1" d="M657,164.34h-6.6V151.16h-2.15v-5.44h2.15v-5.59H657v5.59h3.74v5.44H657Z"/><path class="cls-1" d="M670.57,138.57a3.71,3.71,0,1,1-3.71-3.71A3.72,3.72,0,0,1,670.57,138.57Zm-.4,25.77h-6.61V145.72h6.61Z"/><path class="cls-1" d="M695.58,155.05c0,6.31-5.23,9.91-11.22,9.91s-11.22-3.56-11.22-9.91,5.23-10,11.22-10S695.58,148.69,695.58,155.05Zm-15.47,0a4.25,4.25,0,0,0,8.5,0,4.25,4.25,0,0,0-8.5,0Z"/><path class="cls-1" d="M705.16,148.11h.07a6.45,6.45,0,0,1,6-3c5,0,7,3.16,7,7.73v11.51h-6.6v-9.07c0-1.78.29-4.91-3-4.91-2.69,0-3.45,2-3.45,4.32v9.66h-6.61V145.72h6.61Z"/><path class="cls-1" d="M613.27,186h-3.21v-6.41h-1.13v-2.64h1.13v-1.15a4.06,4.06,0,0,1,4.07-4.62,2.86,2.86,0,0,1,1.38.32v2.77a2.75,2.75,0,0,0-1.13-.3c-.83,0-1.11.49-1.11,1.51v1.47h2.24v2.64h-2.24Z"/><path class="cls-1" d="M619.79,178.4h0a3.14,3.14,0,0,1,2.93-1.61h.61v3.09a2.56,2.56,0,0,0-1.36-.3c-1.78,0-2.22,1.18-2.22,2.74V186h-3.21v-9.05h3.21Z"/><path class="cls-1" d="M635.8,181.45c0,3.07-2.54,4.82-5.45,4.82s-5.45-1.73-5.45-4.82,2.54-4.83,5.45-4.83S635.8,178.36,635.8,181.45Zm-7.51,0a2.07,2.07,0,0,0,4.13,0,2.07,2.07,0,0,0-4.13,0Z"/><path class="cls-1" d="M640.46,178.05h0a3.6,3.6,0,0,1,6,.3,3.44,3.44,0,0,1,3.07-1.73c2.29,0,3.08,1.5,3.08,3.58V186h-3.21v-4.32c0-.94,0-2.47-1.32-2.47s-1.53,1.39-1.53,2.47V186h-3.22v-4.32c0-1,0-2.55-1.42-2.55s-1.43,1.54-1.43,2.55V186h-3.21v-9.05h3.21Z"/><rect class="cls-1" x="359.12" y="125.48" width="360.54" height="4"/><polygon class="cls-1" points="670.6 196.28 662.63 186.06 662.52 186.21 662.52 196.28 657.88 196.28 657.88 171.86 662.52 171.86 662.52 180.79 670.58 171.86 676.31 171.86 665.47 183 676.26 196.28 670.6 196.28"/><path class="cls-1" d="M683.21,196.4a7,7,0,0,1-5.34-2.31,8.57,8.57,0,0,1-2.09-5.81,8.27,8.27,0,0,1,2-5.71,7,7,0,0,1,5.31-2.31,7.11,7.11,0,0,1,4.29,1.59v-1.2h3.91v15.63h-3.91v-1.37a7.32,7.32,0,0,1-4.21,1.49m.41-12.34a3.33,3.33,0,0,0-2.61,1.18,4.45,4.45,0,0,0-1.06,3,4.72,4.72,0,0,0,1,3.15,3.27,3.27,0,0,0,2.61,1.2,3.46,3.46,0,0,0,2.73-1.16,5.16,5.16,0,0,0,0-6.24,3.4,3.4,0,0,0-2.7-1.17"/><rect class="cls-1" x="694.02" y="180.65" width="4.64" height="15.63"/><path class="cls-1" d="M714,171.86v14.56a7.18,7.18,0,0,1-.86,4.11,4.32,4.32,0,0,1-7.06,0,7.17,7.17,0,0,1-.87-4.11V171.86H701.1v15.52a8.54,8.54,0,0,0,2.13,6.27,8.19,8.19,0,0,0,6.28,2.75h.27a8.21,8.21,0,0,0,6.29-2.75,8.53,8.53,0,0,0,2.12-6.27V171.86Z"/><path class="cls-3" d="M696,177.28a2.48,2.48,0,0,1-1.82-.75,2.54,2.54,0,0,1-.76-1.84,2.57,2.57,0,0,1,4.39-1.8,2.45,2.45,0,0,1,.76,1.81,2.52,2.52,0,0,1-.76,1.83,2.45,2.45,0,0,1-1.81.75"/><circle class="cls-2" cx="308.66" cy="132.35" r="31.91"/><path class="cls-4" d="M80.61,1.86,0,164.23H48.71a31.91,31.91,0,1,1,63.81,0h48.71Z"/><polygon class="cls-5" points="161.22 164.21 80.61 1.86 80.54 2 69.37 84.03 161.22 164.21"/><path class="cls-6" d="M49.85,155.78h0L69.37,84,0,164.23H48.71A31.8,31.8,0,0,1,49.85,155.78Z"/><polygon class="cls-7" points="80.54 2 0 164.23 0.02 164.23 69.37 84.03 80.54 2"/><path class="cls-8" d="M49.84,155.78h0a31.9,31.9,0,0,1,62.67,8.45h48.71v0L69.37,84Z"/><path class="cls-9" d="M193.16,1.86,112.54,164.23h48.71a31.91,31.91,0,1,1,63.81,0h48.71Z"/><polygon class="cls-8" points="273.76 164.21 193.16 1.86 193.09 2 181.91 84.03 273.76 164.21"/><path class="cls-8" d="M162.39,155.78h0L181.91,84l-69.35,80.2h48.69A31.8,31.8,0,0,1,162.39,155.78Z"/><polygon class="cls-7" points="193.09 2 112.54 164.23 112.56 164.23 181.91 84.03 193.09 2"/><path class="cls-2" d="M162.38,155.78h0a31.9,31.9,0,0,1,62.67,8.45h48.71v0L181.91,84Z"/></g></g></g></svg>