<svg xmlns="http://www.w3.org/2000/svg" viewBox="0 0 48 48"><defs><style>.cls-1,.cls-2{fill:none;}.cls-2{stroke:#ec6c00;stroke-linecap:round;stroke-linejoin:round;stroke-width:2px;}</style></defs><title>アセット 1</title><g id="レイヤー_2" data-name="レイヤー 2"><g id="レイヤー_1-2" data-name="レイヤー 1"><g id="レイヤー_2-2" data-name="レイヤー 2"><g id="Rectangle"><rect class="cls-1" width="48" height="48"/></g><g id="icon_data" data-name="icon data"><path class="cls-2" d="M14.67,36a9.69,9.69,0,0,1,.94,5,17,17,0,0,0,2.47,1c3.85-4.19,8.16-4.19,12,0a17,17,0,0,0,2.47-1c-.23-5.68,2.81-8.73,8.49-8.49A18.23,18.23,0,0,0,42,30c-4.19-3.85-4.19-8.17,0-12a18.23,18.23,0,0,0-1-2.47c-5.68.24-8.72-2.81-8.49-8.49a17,17,0,0,0-2.47-1c-3.85,4.19-8.16,4.19-12,0a17,17,0,0,0-2.47,1c.23,5.68-2.82,8.73-8.5,8.49a22,22,0,0,0-1,2.47c4.19,3.85,4.19,8.17,0,12a22,22,0,0,0,1,2.47,12.41,12.41,0,0,1,2.36.11"/><path class="cls-2" d="M18.15,24.91a6,6,0,1,1,6.86,5h0a6,6,0,0,1-3-.32"/></g></g></g></g></svg>