<svg xmlns="http://www.w3.org/2000/svg" viewBox="0 0 53.08 70.22"><defs><style>.cls-1{fill:none;}.cls-1,.cls-3{stroke:#707070;stroke-miterlimit:10;stroke-width:2px;}.cls-2{fill:#707070;}.cls-3{font-size:5.84px;font-family:KozGoPr6N-Regular-83pv-RKSJ-H, Kozuka Gothic Pr6N;}</style></defs><title>アセット 1</title><g id="レイヤー_2" data-name="レイヤー 2"><g id="レイヤー_1-2" data-name="レイヤー 1"><circle class="cls-1" cx="25.99" cy="18" r="17"/><path class="cls-1" d="M1,69.22v-12a22.06,22.06,0,0,1,22-22h7.08a22.06,22.06,0,0,1,22,22v12H33.49"/><line class="cls-1" x1="11.49" y1="53.5" x2="11.49" y2="69.5"/><line class="cls-1" x1="40.83" y1="53.5" x2="40.83" y2="69.5"/><line class="cls-1" x1="29.99" y1="69.22" x2="26.49" y2="69.22"/><path class="cls-2" d="M34.58,26.74a16,16,0,0,0-8.95-2.62,16,16,0,0,0-8.95,2.62l-1.09-1.62a18,18,0,0,1,10-2.94,18,18,0,0,1,10,2.94Z"/><text class="cls-3" transform="translate(15.4 16.82)">×</text><text class="cls-3" transform="translate(30.01 16.82)">×</text></g></g></svg>