<svg xmlns="http://www.w3.org/2000/svg" viewBox="0 0 48 48"><defs><style>.cls-1,.cls-2{fill:none;}.circle{fill:#ec6c00;}.cls-2{stroke:#ec6c00;stroke-linecap:round;stroke-linejoin:round;stroke-width:2px;}</style></defs><title>アセット 1</title><g id="レイヤー_2" data-name="レイヤー 2"><g id="レイヤー_1-2" data-name="レイヤー 1"><rect class="cls-1" width="48" height="48"/><path class="cls-2" d="M31,40H11a3,3,0,0,1-3-3V13a3,3,0,0,1,3-3H37a3,3,0,0,1,3,3v4"/><line class="cls-2" x1="40" y1="17" x2="40" y2="31"/><polyline class="cls-2" points="8 17 24 29 40 17"/><path class="circle" d="M40,36h0a4,4,0,0,1,4,4h0a4,4,0,0,1-4,4h0a4,4,0,0,1-4-4h0A4,4,0,0,1,40,36Z"/></g></g></svg>