<svg xmlns="http://www.w3.org/2000/svg" viewBox="0 0 1578.51 1308.5"><defs><style>.cls-1{fill:#5ed45e;}.cls-2{fill:#fcd118;}.cls-3{fill:#1e243a;}</style></defs><title>アセット 1</title><g id="レイヤー_2" data-name="レイヤー 2"><g id="Color"><rect class="cls-1" x="1212.41" y="408.06" width="80.94" height="80.94"/><rect class="cls-1" x="1212.41" y="163.51" width="80.94" height="80.94"/><rect class="cls-1" x="139.47" y="152.23" width="357.63" height="137.68"/><rect class="cls-1" x="139.47" y="345.41" width="137.55" height="103.16"/><rect class="cls-1" x="359.55" y="345.41" width="137.55" height="103.16"/><rect class="cls-2" x="402.58" y="937.52" width="226.49" height="133.11"/><rect class="cls-2" x="402.58" y="1119.47" width="226.49" height="62.11"/></g><g id="RESPONSIVE"><path class="cls-3" d="M1306.71,1308.5H247.81a50.1,50.1,0,0,1-50.05-50V1238a7.5,7.5,0,0,1,7.5-7.5h1144a7.5,7.5,0,0,1,7.5,7.5v20.45A50.1,50.1,0,0,1,1306.71,1308.5Zm-1093.95-63v13a35.09,35.09,0,0,0,35.05,35h1058.9a35.09,35.09,0,0,0,35-35v-13Z"/><path class="cls-3" d="M855.51,1279.72h-161a7.5,7.5,0,0,1-7.5-7.5v-33.5a7.5,7.5,0,0,1,15,0v26H848v-26a7.5,7.5,0,0,1,15,0v33.5A7.5,7.5,0,0,1,855.51,1279.72Z"/><path class="cls-3" d="M1268.51,1237.22a7.5,7.5,0,0,1-7.5-7.5V686.87c0-21.28-14.84-36.15-36.1-36.15H637a7.5,7.5,0,0,1,0-15h587.9c29.61,0,51.1,21.51,51.1,51.15v542.85A7.5,7.5,0,0,1,1268.51,1237.22Z"/><path class="cls-3" d="M280.51,1242.22a7.5,7.5,0,0,1-7.5-7.5v-344a7.5,7.5,0,0,1,15,0v344A7.5,7.5,0,0,1,280.51,1242.22Z"/><path class="cls-3" d="M345.51,1192.72a7.58,7.58,0,0,1-5.3-2.31A7.73,7.73,0,0,1,338,1185V890.72a7.5,7.5,0,0,1,15,0V1177.5l844-.5V715.72H637a7.5,7.5,0,0,1,0-15h567.5a7.5,7.5,0,0,1,7.5,7.5V1184.5a7.6,7.6,0,0,1-7.5,7.61l-859,.61Z"/><path class="cls-3" d="M629.07,1078.13H402.58a7.5,7.5,0,0,1-7.5-7.5V937.52a7.49,7.49,0,0,1,7.5-7.5H629.07a7.5,7.5,0,0,1,7.5,7.5v133.11A7.5,7.5,0,0,1,629.07,1078.13Zm-219-15H621.57V945H410.08Z"/><path class="cls-3" d="M629.07,1189.08a7.49,7.49,0,0,1-7.5-7.5V1127H410.08v54.61a7.5,7.5,0,0,1-15,0v-62.11a7.5,7.5,0,0,1,7.5-7.5H629.07a7.5,7.5,0,0,1,7.5,7.5v62.11A7.5,7.5,0,0,1,629.07,1189.08Z"/><path class="cls-3" d="M921,800.72H685a7.5,7.5,0,0,1,0-15H921a7.5,7.5,0,0,1,0,15Z"/><path class="cls-3" d="M1067,858.72H685a7.5,7.5,0,0,1,0-15h382a7.5,7.5,0,0,1,0,15Z"/><path class="cls-3" d="M921,982.72H685a7.5,7.5,0,0,1,0-15H921a7.5,7.5,0,0,1,0,15Z"/><path class="cls-3" d="M1067,1040.72H685a7.5,7.5,0,0,1,0-15h382a7.5,7.5,0,0,1,0,15Z"/><path class="cls-3" d="M921,1157.72H685a7.5,7.5,0,0,1,0-15H921a7.5,7.5,0,0,1,0,15Z"/><path class="cls-3" d="M599,893.65H37.6A37.65,37.65,0,0,1,0,856.05V38.5A37.65,37.65,0,0,1,37.6.9H599a37.65,37.65,0,0,1,37.61,37.6V856.05A37.65,37.65,0,0,1,599,893.65ZM37.6,15.9A22.63,22.63,0,0,0,15,38.5V856.05a22.63,22.63,0,0,0,22.6,22.6H599a22.63,22.63,0,0,0,22.61-22.6V38.5A22.63,22.63,0,0,0,599,15.9Z"/><path class="cls-3" d="M531.32,787.48H105.25a37.65,37.65,0,0,1-37.6-37.6v-631a37.65,37.65,0,0,1,37.6-37.61H531.32a37.65,37.65,0,0,1,37.6,37.61v631A37.65,37.65,0,0,1,531.32,787.48ZM105.25,96.28a22.63,22.63,0,0,0-22.6,22.61v631a22.63,22.63,0,0,0,22.6,22.6H531.32a22.63,22.63,0,0,0,22.6-22.6v-631a22.63,22.63,0,0,0-22.6-22.61Z"/><path class="cls-3" d="M497.1,297.41H139.47a7.5,7.5,0,0,1-7.5-7.5V152.23a7.5,7.5,0,0,1,7.5-7.5H497.1a7.5,7.5,0,0,1,7.5,7.5V289.91A7.5,7.5,0,0,1,497.1,297.41ZM147,282.41H489.6V159.73H147Z"/><path class="cls-3" d="M277,456.07H139.47a7.5,7.5,0,0,1-7.5-7.5V345.41a7.5,7.5,0,0,1,7.5-7.5H277a7.5,7.5,0,0,1,7.5,7.5V448.57A7.5,7.5,0,0,1,277,456.07Zm-130-15H269.52V352.91H147Z"/><path class="cls-3" d="M497.1,456.07H359.55a7.5,7.5,0,0,1-7.5-7.5V345.41a7.5,7.5,0,0,1,7.5-7.5H497.1a7.5,7.5,0,0,1,7.5,7.5V448.57A7.5,7.5,0,0,1,497.1,456.07Zm-130-15H489.6V352.91H367.05Z"/><path class="cls-3" d="M277,560.72H140a7.5,7.5,0,0,1,0-15H277a7.5,7.5,0,0,1,0,15Z"/><path class="cls-3" d="M277,505.72H140a7.5,7.5,0,0,1,0-15H277a7.5,7.5,0,0,1,0,15Z"/><path class="cls-3" d="M277,617.72H140a7.5,7.5,0,0,1,0-15H277a7.5,7.5,0,0,1,0,15Z"/><path class="cls-3" d="M277,672.72H140a7.5,7.5,0,0,1,0-15H277a7.5,7.5,0,0,1,0,15Z"/><path class="cls-3" d="M277,729.72H140a7.5,7.5,0,0,1,0-15H277a7.5,7.5,0,0,1,0,15Z"/><path class="cls-3" d="M497,560.72H359a7.5,7.5,0,0,1,0-15H497a7.5,7.5,0,0,1,0,15Z"/><path class="cls-3" d="M497,505.72H359a7.5,7.5,0,0,1,0-15H497a7.5,7.5,0,0,1,0,15Z"/><path class="cls-3" d="M497,617.72H359a7.5,7.5,0,0,1,0-15H497a7.5,7.5,0,0,1,0,15Z"/><path class="cls-3" d="M497,672.72H359a7.5,7.5,0,0,1,0-15H497a7.5,7.5,0,0,1,0,15Z"/><path class="cls-3" d="M497,729.72H359a7.5,7.5,0,0,1,0-15H497a7.5,7.5,0,0,1,0,15Z"/><path class="cls-3" d="M318.28,864.58a31.54,31.54,0,1,1,31.54-31.53A31.57,31.57,0,0,1,318.28,864.58Zm0-48.07a16.54,16.54,0,1,0,16.54,16.54A16.56,16.56,0,0,0,318.28,816.51Z"/><path class="cls-3" d="M364,55.72H273a7.5,7.5,0,0,1,0-15h91a7.5,7.5,0,0,1,0,15Z"/><path class="cls-3" d="M1547.48,796.1H1274.1a7.5,7.5,0,0,1,0-15h273.38a15.46,15.46,0,0,0,15.44-15.44V30.45A15.46,15.46,0,0,0,1547.48,15H1181.1a15.47,15.47,0,0,0-15.45,15.45V636.72a7.5,7.5,0,0,1-15,0V30.45A30.48,30.48,0,0,1,1181.1,0h366.38a30.48,30.48,0,0,1,30.44,30.45V765.66A30.47,30.47,0,0,1,1547.48,796.1Z"/><path class="cls-3" d="M1571,120.72H1158a7.5,7.5,0,0,1,0-15h413a7.5,7.5,0,0,1,0,15Z"/><path class="cls-3" d="M1567,692.72H1270a7.5,7.5,0,0,1,0-15h297a7.5,7.5,0,0,1,0,15Z"/><path class="cls-3" d="M1403,67.72h-77a7.5,7.5,0,0,1,0-15h77a7.5,7.5,0,0,1,0,15Z"/><path class="cls-3" d="M1364.77,762.46a25.91,25.91,0,1,1,25.9-25.91A25.94,25.94,0,0,1,1364.77,762.46Zm0-36.82a10.91,10.91,0,1,0,10.9,10.91A10.92,10.92,0,0,0,1364.77,725.64Z"/><path class="cls-3" d="M1293.35,252h-80.94a7.5,7.5,0,0,1-7.5-7.5V163.51a7.5,7.5,0,0,1,7.5-7.5h80.94a7.5,7.5,0,0,1,7.5,7.5v80.94A7.5,7.5,0,0,1,1293.35,252Zm-73.44-15h65.94V171h-65.94Z"/><path class="cls-3" d="M1455,193.72H1326a7.5,7.5,0,0,1,0-15h129a7.5,7.5,0,0,1,0,15Z"/><path class="cls-3" d="M1516,229.72H1326a7.5,7.5,0,0,1,0-15h190a7.5,7.5,0,0,1,0,15Z"/><path class="cls-3" d="M1293.35,374.23h-80.94a7.5,7.5,0,0,1-7.5-7.5V285.79a7.5,7.5,0,0,1,7.5-7.5h80.94a7.5,7.5,0,0,1,7.5,7.5v80.94A7.5,7.5,0,0,1,1293.35,374.23Zm-73.44-15h65.94V293.29h-65.94Z"/><path class="cls-3" d="M1455,315.72H1326a7.5,7.5,0,0,1,0-15h129a7.5,7.5,0,0,1,0,15Z"/><path class="cls-3" d="M1516,352.72H1326a7.5,7.5,0,0,1,0-15h190a7.5,7.5,0,0,1,0,15Z"/><path class="cls-3" d="M1293.35,496.5h-80.94a7.5,7.5,0,0,1-7.5-7.5V408.06a7.5,7.5,0,0,1,7.5-7.5h80.94a7.5,7.5,0,0,1,7.5,7.5V489A7.5,7.5,0,0,1,1293.35,496.5Zm-73.44-15h65.94V415.56h-65.94Z"/><path class="cls-3" d="M1455,436.72H1326a7.5,7.5,0,0,1,0-15h129a7.5,7.5,0,0,1,0,15Z"/><path class="cls-3" d="M1516,475.72H1326a7.5,7.5,0,0,1,0-15h190a7.5,7.5,0,0,1,0,15Z"/><path class="cls-3" d="M1293.35,618.77h-80.94a7.5,7.5,0,0,1-7.5-7.5V530.33a7.5,7.5,0,0,1,7.5-7.5h80.94a7.5,7.5,0,0,1,7.5,7.5v80.94A7.5,7.5,0,0,1,1293.35,618.77Zm-73.44-15h65.94V537.83h-65.94Z"/><path class="cls-3" d="M1455,559.72H1326a7.5,7.5,0,0,1,0-15h129a7.5,7.5,0,0,1,0,15Z"/><path class="cls-3" d="M1516,597.72H1326a7.5,7.5,0,0,1,0-15h190a7.5,7.5,0,0,1,0,15Z"/><path class="cls-3" d="M1269.16,350H1236.6a7.5,7.5,0,0,1-7.5-7.5V310a7.5,7.5,0,0,1,7.5-7.5h32.56a7.5,7.5,0,0,1,7.5,7.5v32.57A7.5,7.5,0,0,1,1269.16,350Zm-25.06-15h17.56V317.47H1244.1Z"/><path class="cls-3" d="M1269.16,594.58H1236.6a7.5,7.5,0,0,1-7.5-7.5V554.52a7.5,7.5,0,0,1,7.5-7.5h32.56a7.5,7.5,0,0,1,7.5,7.5v32.56A7.5,7.5,0,0,1,1269.16,594.58Zm-25.06-15h17.56V562H1244.1Z"/><path class="cls-3" d="M762.51,560.22a7.5,7.5,0,0,1-7.5-7.5v-45a7.5,7.5,0,0,1,15,0v45A7.5,7.5,0,0,1,762.51,560.22Z"/><path class="cls-3" d="M785,537.72H740a7.5,7.5,0,0,1,0-15h45a7.5,7.5,0,0,1,0,15Z"/><path class="cls-3" d="M755.51,90.22a7.5,7.5,0,0,1-7.5-7.5v-45a7.5,7.5,0,0,1,15,0v45A7.5,7.5,0,0,1,755.51,90.22Z"/><path class="cls-3" d="M778,67.72H733a7.5,7.5,0,0,1,0-15h45a7.5,7.5,0,0,1,0,15Z"/><path class="cls-3" d="M1482.51,1259.22a7.5,7.5,0,0,1-7.5-7.5v-45a7.5,7.5,0,0,1,15,0v45A7.5,7.5,0,0,1,1482.51,1259.22Z"/><path class="cls-3" d="M1505,1236.72h-45a7.5,7.5,0,0,1,0-15h45a7.5,7.5,0,0,1,0,15Z"/><path class="cls-3" d="M960.92,341.19a9.91,9.91,0,0,1,9.75-10.14h0a9.87,9.87,0,0,1,10.24,9.6h0a9.77,9.77,0,0,1-9.75,10.07h-.25A9.8,9.8,0,0,1,960.92,341.19Zm-29.62-5.53a10,10,0,0,1-.26-14.14h0a10,10,0,0,1,14.14-.26h0a10,10,0,0,1,.27,14.14h0a10,10,0,0,1-7.21,3.06h0A10,10,0,0,1,931.3,335.66Zm64.76-1.53a10,10,0,0,1-.44-14.14h0a10,10,0,0,1,14.14-.44h0a10,10,0,0,1,.44,14.14h0a10,10,0,0,1-7.29,3.15h0A10,10,0,0,1,996.06,334.13Zm-81.74-37.5a10,10,0,0,1,9.73-10.23h0a9.73,9.73,0,0,1,10,9.77h0c0,5.53-4,10.56-9.56,10.56h-.13A10.19,10.19,0,0,1,914.32,296.63Zm90.89-2.39a9.93,9.93,0,0,1,9.62-10.29h0a9.9,9.9,0,0,1,10.36,9.51h0a9.78,9.78,0,0,1-9.62,10.26h-.37A9.87,9.87,0,0,1,1005.21,294.24Zm-74.8-23.35a10,10,0,0,1-.09-14.14h0a10,10,0,0,1,14.14-.09h0a10,10,0,0,1,.09,14.15h0a10,10,0,0,1-7.12,3h0A9.92,9.92,0,0,1,930.41,270.89Zm63.31-1.32h0a10,10,0,0,1-.61-14.13h0a10,10,0,0,1,14.13-.61h0a10,10,0,0,1,.61,14.13h0a10,10,0,0,1-7.37,3.24h0A10,10,0,0,1,993.72,269.57Zm-33.94-19.31a10,10,0,0,1,10-10h0a10,10,0,0,1,10,10h0a10,10,0,0,1-10,10h0A10,10,0,0,1,959.78,250.26Z"/><path class="cls-3" d="M1409.92,983.19a9.91,9.91,0,0,1,9.75-10.14h0a9.87,9.87,0,0,1,10.24,9.6h0a9.77,9.77,0,0,1-9.75,10.07h-.25A9.8,9.8,0,0,1,1409.92,983.19Zm-29.61-5.53a10,10,0,0,1-.27-14.14h0a10,10,0,0,1,14.14-.26h0a10,10,0,0,1,.27,14.14h0a10,10,0,0,1-7.21,3.06h0A9.94,9.94,0,0,1,1380.31,977.66Zm64.75-1.53a10,10,0,0,1-.44-14.14h0a10,10,0,0,1,14.14-.44h0a10,10,0,0,1,.44,14.14h0a10,10,0,0,1-7.29,3.15h0A10,10,0,0,1,1445.06,976.13Zm-81.74-37.5a10,10,0,0,1,9.73-10.23h0a9.73,9.73,0,0,1,10,9.77h0c0,5.53-4,10.56-9.56,10.56h-.13A10.19,10.19,0,0,1,1363.32,938.63Zm90.89-2.39h0a9.93,9.93,0,0,1,9.62-10.29h0a9.92,9.92,0,0,1,10.37,9.51h0a9.79,9.79,0,0,1-9.63,10.26h-.38A9.87,9.87,0,0,1,1454.21,936.24Zm-74.8-23.35a10,10,0,0,1-.09-14.14h0a10,10,0,0,1,14.14-.09h0a10,10,0,0,1,.09,14.15h0a10,10,0,0,1-7.12,3h0A9.93,9.93,0,0,1,1379.41,912.89Zm63.31-1.32a10,10,0,0,1-.61-14.13h0a10,10,0,0,1,14.13-.61h0a10,10,0,0,1,.61,14.13h0a10,10,0,0,1-7.37,3.24h0A10,10,0,0,1,1442.72,911.57Zm-33.94-19.31a10,10,0,0,1,10-10h0a10,10,0,0,1,10,10h0a10,10,0,0,1-10,10h0A10,10,0,0,1,1408.78,892.26Z"/><path class="cls-3" d="M104.92,1079.19a9.91,9.91,0,0,1,9.75-10.14h0a9.87,9.87,0,0,1,10.24,9.6h0a9.77,9.77,0,0,1-9.75,10.07h-.25A9.81,9.81,0,0,1,104.92,1079.19Zm-29.62-5.53a10,10,0,0,1-.26-14.14h0a10,10,0,0,1,14.14-.26h0a10,10,0,0,1,.27,14.14h0a10,10,0,0,1-7.21,3.06h0A10,10,0,0,1,75.3,1073.66Zm64.76-1.53a10,10,0,0,1-.44-14.14h0a10,10,0,0,1,14.14-.44h0a10,10,0,0,1,.44,14.14h0a10,10,0,0,1-7.29,3.15h0A10,10,0,0,1,140.06,1072.13Zm-81.74-37.5a10.11,10.11,0,0,1,9.88-10.23h0a10.13,10.13,0,0,1,10.12,10h0a10.09,10.09,0,0,1-9.87,10.28h-.13A10.19,10.19,0,0,1,58.32,1034.63Zm90.89-2.39h0a9.93,9.93,0,0,1,9.62-10.29h0a9.9,9.9,0,0,1,10.36,9.51h0a9.78,9.78,0,0,1-9.62,10.26h-.37A9.87,9.87,0,0,1,149.21,1032.24Zm-74.8-23.35a10,10,0,0,1-.09-14.14h0a10,10,0,0,1,14.14-.09h0a10,10,0,0,1,.09,14.15h0a10,10,0,0,1-7.12,3h0A9.92,9.92,0,0,1,74.41,1008.89Zm63.31-1.32a10,10,0,0,1-.61-14.13h0a10,10,0,0,1,14.13-.61h0a10,10,0,0,1,.61,14.13h0a10,10,0,0,1-7.37,3.24h0A10,10,0,0,1,137.72,1007.57Zm-33.94-19.31a10,10,0,0,1,10-10h0a10,10,0,0,1,10,10h0a10,10,0,0,1-10,10h0A10,10,0,0,1,103.78,988.26Z"/></g></g></svg>